<?xml version="1.0" encoding="UTF-8" standalone="no"?><svg xmlns="http://www.w3.org/2000/svg" xmlns:xlink="http://www.w3.org/1999/xlink" contentScriptType="application/ecmascript" contentStyleType="text/css" height="475px" preserveAspectRatio="none" style="width:2146px;height:475px;" version="1.1" viewBox="0 0 2146 475" width="2146px" zoomAndPan="magnify"><defs><filter height="300%" id="f2fhpfejznna1" width="300%" x="-1" y="-1"><feGaussianBlur result="blurOut" stdDeviation="2.0"/><feColorMatrix in="blurOut" result="blurOut2" type="matrix" values="0 0 0 0 0 0 0 0 0 0 0 0 0 0 0 0 0 0 .4 0"/><feOffset dx="4.0" dy="4.0" in="blurOut2" result="blurOut3"/><feBlend in="SourceGraphic" in2="blurOut3" mode="normal"/></filter></defs><g><!--MD5=[c27d767109b3913d4718b358a17ad24a]
cluster internal--><polygon fill="#FFFFFF" filter="url(#f2fhpfejznna1)" points="1277,69,1337,69,1344,94.0679,1730,94.0679,1730,231,1277,231,1277,69" style="stroke: #000000; stroke-width: 1.5;"/><line style="stroke: #000000; stroke-width: 1.5;" x1="1277" x2="1344" y1="94.0679" y2="94.0679"/><text fill="#000000" font-family="sans-serif" font-size="14" font-weight="bold" lengthAdjust="spacingAndGlyphs" textLength="54" x="1281" y="85.9659">internal</text><!--MD5=[66de46875e9ca6c2e5f1890fb81f9fe4]
cluster pkg.httpcontext--><polygon fill="#FFFFFF" filter="url(#f2fhpfejznna1)" points="1754,91.5,1874,91.5,1881,116.5679,1888,116.5679,1888,433,1754,433,1754,91.5" style="stroke: #000000; stroke-width: 1.5;"/><line style="stroke: #000000; stroke-width: 1.5;" x1="1754" x2="1881" y1="116.5679" y2="116.5679"/><text fill="#000000" font-family="sans-serif" font-size="14" font-weight="bold" lengthAdjust="spacingAndGlyphs" textLength="114" x="1758" y="108.4659">pkg.httpcontext</text><!--MD5=[d90c695c32d4e95bb9451c21e63b0bfd]
cluster pkg.telemetry--><polygon fill="#FFFFFF" filter="url(#f2fhpfejznna1)" points="1912,54,2017,54,2024,79.0679,2124,79.0679,2124,246,1912,246,1912,54" style="stroke: #000000; stroke-width: 1.5;"/><line style="stroke: #000000; stroke-width: 1.5;" x1="1912" x2="2024" y1="79.0679" y2="79.0679"/><text fill="#000000" font-family="sans-serif" font-size="14" font-weight="bold" lengthAdjust="spacingAndGlyphs" textLength="99" x="1916" y="70.9659">pkg.telemetry</text><!--MD5=[d841c4c2f84d4e18d352f800547f43fc]
cluster platform--><polygon fill="#FFFFFF" filter="url(#f2fhpfejznna1)" points="22,24,89,24,96,49.0679,1253,49.0679,1253,463,22,463,22,24" style="stroke: #000000; stroke-width: 1.5;"/><line style="stroke: #000000; stroke-width: 1.5;" x1="22" x2="96" y1="49.0679" y2="49.0679"/><text fill="#000000" font-family="sans-serif" font-size="14" font-weight="bold" lengthAdjust="spacingAndGlyphs" textLength="61" x="26" y="40.9659">platform</text><!--MD5=[98c17e746b1aec6ba8c0d376f06b2a22]
class internal.DatabaseOption--><rect fill="#FEFECE" filter="url(#f2fhpfejznna1)" height="92.9457" id="internal.DatabaseOption" style="stroke: #A80036; stroke-width: 1.5;" width="141" x="1572.5" y="114.5"/><ellipse cx="1595.6" cy="130.5" fill="#ADD1B2" rx="11" ry="11" style="stroke: #A80036; stroke-width: 1.0;"/><path d="M1598.5688,136.1406 Q1597.9906,136.4375 1597.35,136.5781 Q1596.7094,136.7344 1596.0063,136.7344 Q1593.5063,136.7344 1592.1781,135.0938 Q1590.8656,133.4375 1590.8656,130.3125 Q1590.8656,127.1875 1592.1781,125.5313 Q1593.5063,123.875 1596.0063,123.875 Q1596.7094,123.875 1597.35,124.0313 Q1598.0063,124.1875 1598.5688,124.4844 L1598.5688,127.2031 Q1597.9438,126.625 1597.35,126.3594 Q1596.7563,126.0781 1596.1313,126.0781 Q1594.7875,126.0781 1594.1,127.1563 Q1593.4125,128.2188 1593.4125,130.3125 Q1593.4125,132.4063 1594.1,133.4844 Q1594.7875,134.5469 1596.1313,134.5469 Q1596.7563,134.5469 1597.35,134.2813 Q1597.9438,134 1598.5688,133.4219 L1598.5688,136.1406 Z "/><text fill="#000000" font-family="sans-serif" font-size="12" lengthAdjust="spacingAndGlyphs" textLength="91" x="1611.4" y="135.156">DatabaseOption</text><line style="stroke: #A80036; stroke-width: 1.5;" x1="1573.5" x2="1712.5" y1="146.5" y2="146.5"/><ellipse cx="1583.5" cy="157.5" fill="none" rx="3" ry="3" style="stroke: #038048; stroke-width: 1.0;"/><text fill="#000000" font-family="sans-serif" font-size="11" lengthAdjust="spacingAndGlyphs" textLength="104" x="1592.5" y="162.2589">MaxOpenConns: int</text><ellipse cx="1583.5" cy="172.4819" fill="none" rx="3" ry="3" style="stroke: #038048; stroke-width: 1.0;"/><text fill="#000000" font-family="sans-serif" font-size="11" lengthAdjust="spacingAndGlyphs" textLength="95" x="1592.5" y="177.2408">MaxIdleConns: int</text><line style="stroke: #A80036; stroke-width: 1.5;" x1="1573.5" x2="1712.5" y1="184.4638" y2="184.4638"/><ellipse cx="1583.5" cy="195.4638" fill="#84BE84" rx="3" ry="3" style="stroke: #038048; stroke-width: 1.0;"/><text fill="#000000" font-family="sans-serif" font-size="11" lengthAdjust="spacingAndGlyphs" textLength="115" x="1592.5" y="200.2227">Apply (client *sqlx.DB)</text><!--MD5=[81606ba0f826459e1b602f9ff0101a6f]
class internal.DatabaseProvider--><rect fill="#FEFECE" filter="url(#f2fhpfejznna1)" height="107.9276" id="internal.DatabaseProvider" style="stroke: #A80036; stroke-width: 1.5;" width="244" x="1293" y="107"/><ellipse cx="1362.25" cy="123" fill="#B4A7E5" rx="11" ry="11" style="stroke: #A80036; stroke-width: 1.0;"/><path d="M1358.1719,118.7656 L1358.1719,116.6094 L1365.5625,116.6094 L1365.5625,118.7656 L1363.0938,118.7656 L1363.0938,126.8438 L1365.5625,126.8438 L1365.5625,129 L1358.1719,129 L1358.1719,126.8438 L1360.6406,126.8438 L1360.6406,118.7656 L1358.1719,118.7656 Z "/><text fill="#000000" font-family="sans-serif" font-size="12" font-style="italic" lengthAdjust="spacingAndGlyphs" textLength="97" x="1382.75" y="127.656">DatabaseProvider</text><line style="stroke: #A80036; stroke-width: 1.5;" x1="1294" x2="1536" y1="139" y2="139"/><rect fill="none" height="6" style="stroke: #C82930; stroke-width: 1.0;" width="6" x="1301" y="147"/><text fill="#000000" font-family="sans-serif" font-size="11" lengthAdjust="spacingAndGlyphs" textLength="82" x="1313" y="154.7589">mu: sync.Mutex</text><rect fill="none" height="6" style="stroke: #C82930; stroke-width: 1.0;" width="6" x="1301" y="161.9819"/><text fill="#000000" font-family="sans-serif" font-size="11" lengthAdjust="spacingAndGlyphs" textLength="142" x="1313" y="169.7408">cache: map[string]*sqlx.DB</text><rect fill="none" height="6" style="stroke: #C82930; stroke-width: 1.0;" width="6" x="1301" y="176.9638"/><text fill="#000000" font-family="sans-serif" font-size="11" lengthAdjust="spacingAndGlyphs" textLength="156" x="1313" y="184.7227">credentials: map[string]string</text><line style="stroke: #A80036; stroke-width: 1.5;" x1="1294" x2="1536" y1="191.9457" y2="191.9457"/><rect fill="#F24D5C" height="6" style="stroke: #C82930; stroke-width: 1.0;" width="6" x="1301" y="199.9457"/><text fill="#000000" font-family="sans-serif" font-size="11" lengthAdjust="spacingAndGlyphs" textLength="218" x="1313" y="207.7046">open: func(string, string) (*sqlx.DB, error)</text><!--MD5=[de03c539a5891f1233edfc307f400ecf]
class pkg.httpcontext.Value[T any]--><rect fill="#FEFECE" filter="url(#f2fhpfejznna1)" height="62.9819" id="pkg.httpcontext.Value[T any]" style="stroke: #A80036; stroke-width: 1.5;" width="101" x="1770.5" y="129.5"/><ellipse cx="1785.5" cy="145.5" fill="#ADD1B2" rx="11" ry="11" style="stroke: #A80036; stroke-width: 1.0;"/><path d="M1788.4688,151.1406 Q1787.8906,151.4375 1787.25,151.5781 Q1786.6094,151.7344 1785.9063,151.7344 Q1783.4063,151.7344 1782.0781,150.0938 Q1780.7656,148.4375 1780.7656,145.3125 Q1780.7656,142.1875 1782.0781,140.5313 Q1783.4063,138.875 1785.9063,138.875 Q1786.6094,138.875 1787.25,139.0313 Q1787.9063,139.1875 1788.4688,139.4844 L1788.4688,142.2031 Q1787.8438,141.625 1787.25,141.3594 Q1786.6563,141.0781 1786.0313,141.0781 Q1784.6875,141.0781 1784,142.1563 Q1783.3125,143.2188 1783.3125,145.3125 Q1783.3125,147.4063 1784,148.4844 Q1784.6875,149.5469 1786.0313,149.5469 Q1786.6563,149.5469 1787.25,149.2813 Q1787.8438,149 1788.4688,148.4219 L1788.4688,151.1406 Z "/><text fill="#000000" font-family="sans-serif" font-size="12" lengthAdjust="spacingAndGlyphs" textLength="69" x="1799.5" y="150.156">Value[T any]</text><line style="stroke: #A80036; stroke-width: 1.5;" x1="1771.5" x2="1870.5" y1="161.5" y2="161.5"/><ellipse cx="1781.5" cy="172.5" fill="none" rx="3" ry="3" style="stroke: #038048; stroke-width: 1.0;"/><text fill="#000000" font-family="sans-serif" font-size="11" lengthAdjust="spacingAndGlyphs" textLength="44" x="1790.5" y="177.2589">Key: any</text><line style="stroke: #A80036; stroke-width: 1.5;" x1="1771.5" x2="1870.5" y1="184.4819" y2="184.4819"/><!--MD5=[94413c9a958ede3aa383f4bf6cbf7c55]
class pkg.httpcontext.any--><rect fill="#FEFECE" filter="url(#f2fhpfejznna1)" height="48" id="pkg.httpcontext.any" style="stroke: #A80036; stroke-width: 1.5;" width="52" x="1795" y="369"/><ellipse cx="1810" cy="385" fill="#ADD1B2" rx="11" ry="11" style="stroke: #A80036; stroke-width: 1.0;"/><path d="M1812.9688,390.6406 Q1812.3906,390.9375 1811.75,391.0781 Q1811.1094,391.2344 1810.4063,391.2344 Q1807.9063,391.2344 1806.5781,389.5938 Q1805.2656,387.9375 1805.2656,384.8125 Q1805.2656,381.6875 1806.5781,380.0313 Q1807.9063,378.375 1810.4063,378.375 Q1811.1094,378.375 1811.75,378.5313 Q1812.4063,378.6875 1812.9688,378.9844 L1812.9688,381.7031 Q1812.3438,381.125 1811.75,380.8594 Q1811.1563,380.5781 1810.5313,380.5781 Q1809.1875,380.5781 1808.5,381.6563 Q1807.8125,382.7188 1807.8125,384.8125 Q1807.8125,386.9063 1808.5,387.9844 Q1809.1875,389.0469 1810.5313,389.0469 Q1811.1563,389.0469 1811.75,388.7813 Q1812.3438,388.5 1812.9688,387.9219 L1812.9688,390.6406 Z "/><text fill="#000000" font-family="sans-serif" font-size="12" lengthAdjust="spacingAndGlyphs" textLength="20" x="1824" y="389.656">any</text><line style="stroke: #A80036; stroke-width: 1.5;" x1="1796" x2="1846" y1="401" y2="401"/><line style="stroke: #A80036; stroke-width: 1.5;" x1="1796" x2="1846" y1="409" y2="409"/><!--MD5=[9f7baa3bd5ce22608ae8a8de3db087f1]
class pkg.telemetry.Monitor--><rect fill="#FEFECE" filter="url(#f2fhpfejznna1)" height="137.8913" id="pkg.telemetry.Monitor" style="stroke: #A80036; stroke-width: 1.5;" width="179" x="1928.5" y="92"/><ellipse cx="1991.75" cy="108" fill="#ADD1B2" rx="11" ry="11" style="stroke: #A80036; stroke-width: 1.0;"/><path d="M1994.7188,113.6406 Q1994.1406,113.9375 1993.5,114.0781 Q1992.8594,114.2344 1992.1563,114.2344 Q1989.6563,114.2344 1988.3281,112.5938 Q1987.0156,110.9375 1987.0156,107.8125 Q1987.0156,104.6875 1988.3281,103.0313 Q1989.6563,101.375 1992.1563,101.375 Q1992.8594,101.375 1993.5,101.5313 Q1994.1563,101.6875 1994.7188,101.9844 L1994.7188,104.7031 Q1994.0938,104.125 1993.5,103.8594 Q1992.9063,103.5781 1992.2813,103.5781 Q1990.9375,103.5781 1990.25,104.6563 Q1989.5625,105.7188 1989.5625,107.8125 Q1989.5625,109.9063 1990.25,110.9844 Q1990.9375,112.0469 1992.2813,112.0469 Q1992.9063,112.0469 1993.5,111.7813 Q1994.0938,111.5 1994.7188,110.9219 L1994.7188,113.6406 Z "/><text fill="#000000" font-family="sans-serif" font-size="12" lengthAdjust="spacingAndGlyphs" textLength="44" x="2012.25" y="112.656">Monitor</text><line style="stroke: #A80036; stroke-width: 1.5;" x1="1929.5" x2="2106.5" y1="124" y2="124"/><rect fill="none" height="6" style="stroke: #C82930; stroke-width: 1.0;" width="6" x="1936.5" y="132"/><text fill="#000000" font-family="sans-serif" font-size="11" lengthAdjust="spacingAndGlyphs" textLength="82" x="1948.5" y="139.7589">mu: sync.Mutex</text><rect fill="none" height="6" style="stroke: #C82930; stroke-width: 1.0;" width="6" x="1936.5" y="146.9819"/><text fill="#000000" font-family="sans-serif" font-size="11" lengthAdjust="spacingAndGlyphs" textLength="72" x="1948.5" y="154.7408">enabled: bool</text><rect fill="none" height="6" style="stroke: #C82930; stroke-width: 1.0;" width="6" x="1936.5" y="161.9638"/><text fill="#000000" font-family="sans-serif" font-size="11" lengthAdjust="spacingAndGlyphs" textLength="153" x="1948.5" y="169.7227">state: map[string]*expvar.Int</text><line style="stroke: #A80036; stroke-width: 1.5;" x1="1929.5" x2="2106.5" y1="176.9457" y2="176.9457"/><ellipse cx="1939.5" cy="187.9457" fill="#84BE84" rx="3" ry="3" style="stroke: #038048; stroke-width: 1.0;"/><text fill="#000000" font-family="sans-serif" font-size="11" lengthAdjust="spacingAndGlyphs" textLength="78" x="1948.5" y="192.7046">Enabled () bool</text><ellipse cx="1939.5" cy="202.9276" fill="#84BE84" rx="3" ry="3" style="stroke: #038048; stroke-width: 1.0;"/><text fill="#000000" font-family="sans-serif" font-size="11" lengthAdjust="spacingAndGlyphs" textLength="136" x="1948.5" y="207.6865">SetEnabled (enabled bool)</text><ellipse cx="1939.5" cy="217.9094" fill="#84BE84" rx="3" ry="3" style="stroke: #038048; stroke-width: 1.0;"/><text fill="#000000" font-family="sans-serif" font-size="11" lengthAdjust="spacingAndGlyphs" textLength="104" x="1948.5" y="222.6684">Touch (name string)</text><!--MD5=[7de3ec76c7fd8a33a0ea4e6eeda76880]
class platform.DatabaseProvider--><rect fill="#FEFECE" filter="url(#f2fhpfejznna1)" height="77.9638" id="platform.DatabaseProvider" style="stroke: #A80036; stroke-width: 1.5;" width="344" x="534" y="122"/><ellipse cx="653.25" cy="138" fill="#B4A7E5" rx="11" ry="11" style="stroke: #A80036; stroke-width: 1.0;"/><path d="M649.1719,133.7656 L649.1719,131.6094 L656.5625,131.6094 L656.5625,133.7656 L654.0938,133.7656 L654.0938,141.8438 L656.5625,141.8438 L656.5625,144 L649.1719,144 L649.1719,141.8438 L651.6406,141.8438 L651.6406,133.7656 L649.1719,133.7656 Z "/><text fill="#000000" font-family="sans-serif" font-size="12" font-style="italic" lengthAdjust="spacingAndGlyphs" textLength="97" x="673.75" y="142.656">DatabaseProvider</text><line style="stroke: #A80036; stroke-width: 1.5;" x1="535" x2="877" y1="154" y2="154"/><line style="stroke: #A80036; stroke-width: 1.5;" x1="535" x2="877" y1="162" y2="162"/><ellipse cx="545" cy="173" fill="#84BE84" rx="3" ry="3" style="stroke: #038048; stroke-width: 1.0;"/><text fill="#000000" font-family="sans-serif" font-size="11" lengthAdjust="spacingAndGlyphs" textLength="201" x="554" y="177.7589">Open: Open (...string) (*sqlx.DB, error)</text><ellipse cx="545" cy="187.9819" fill="#84BE84" rx="3" ry="3" style="stroke: #038048; stroke-width: 1.0;"/><text fill="#000000" font-family="sans-serif" font-size="11" lengthAdjust="spacingAndGlyphs" textLength="318" x="554" y="192.7408">Connect: Connect (context.Context, ...string) (*sqlx.DB, error)</text><!--MD5=[782a8e96be819bf106532df41d80f0d1]
class platform.ErrorResponse--><rect fill="#FEFECE" filter="url(#f2fhpfejznna1)" height="62.9819" id="platform.ErrorResponse" style="stroke: #A80036; stroke-width: 1.5;" width="165" x="333.5" y="129.5"/><ellipse cx="371" cy="145.5" fill="#ADD1B2" rx="11" ry="11" style="stroke: #A80036; stroke-width: 1.0;"/><path d="M373.9688,151.1406 Q373.3906,151.4375 372.75,151.5781 Q372.1094,151.7344 371.4063,151.7344 Q368.9063,151.7344 367.5781,150.0938 Q366.2656,148.4375 366.2656,145.3125 Q366.2656,142.1875 367.5781,140.5313 Q368.9063,138.875 371.4063,138.875 Q372.1094,138.875 372.75,139.0313 Q373.4063,139.1875 373.9688,139.4844 L373.9688,142.2031 Q373.3438,141.625 372.75,141.3594 Q372.1563,141.0781 371.5313,141.0781 Q370.1875,141.0781 369.5,142.1563 Q368.8125,143.2188 368.8125,145.3125 Q368.8125,147.4063 369.5,148.4844 Q370.1875,149.5469 371.5313,149.5469 Q372.1563,149.5469 372.75,149.2813 Q373.3438,149 373.9688,148.4219 L373.9688,151.1406 Z "/><text fill="#000000" font-family="sans-serif" font-size="12" lengthAdjust="spacingAndGlyphs" textLength="83" x="390" y="150.156">ErrorResponse</text><line style="stroke: #A80036; stroke-width: 1.5;" x1="334.5" x2="497.5" y1="161.5" y2="161.5"/><ellipse cx="344.5" cy="172.5" fill="none" rx="3" ry="3" style="stroke: #038048; stroke-width: 1.0;"/><text fill="#000000" font-family="sans-serif" font-size="11" lengthAdjust="spacingAndGlyphs" textLength="139" x="353.5" y="177.2589">Error: ErrorResponseBody</text><line style="stroke: #A80036; stroke-width: 1.5;" x1="334.5" x2="497.5" y1="184.4819" y2="184.4819"/><!--MD5=[5d815c542bfd9967fd2dd1269cefa2b4]
class platform.ErrorResponseBody--><rect fill="#FEFECE" filter="url(#f2fhpfejznna1)" height="77.9638" id="platform.ErrorResponseBody" style="stroke: #A80036; stroke-width: 1.5;" width="143" x="533.5" y="354"/><ellipse cx="548.5" cy="370" fill="#ADD1B2" rx="11" ry="11" style="stroke: #A80036; stroke-width: 1.0;"/><path d="M551.4688,375.6406 Q550.8906,375.9375 550.25,376.0781 Q549.6094,376.2344 548.9063,376.2344 Q546.4063,376.2344 545.0781,374.5938 Q543.7656,372.9375 543.7656,369.8125 Q543.7656,366.6875 545.0781,365.0313 Q546.4063,363.375 548.9063,363.375 Q549.6094,363.375 550.25,363.5313 Q550.9063,363.6875 551.4688,363.9844 L551.4688,366.7031 Q550.8438,366.125 550.25,365.8594 Q549.6563,365.5781 549.0313,365.5781 Q547.6875,365.5781 547,366.6563 Q546.3125,367.7188 546.3125,369.8125 Q546.3125,371.9063 547,372.9844 Q547.6875,374.0469 549.0313,374.0469 Q549.6563,374.0469 550.25,373.7813 Q550.8438,373.5 551.4688,372.9219 L551.4688,375.6406 Z "/><text fill="#000000" font-family="sans-serif" font-size="12" lengthAdjust="spacingAndGlyphs" textLength="111" x="562.5" y="374.656">ErrorResponseBody</text><line style="stroke: #A80036; stroke-width: 1.5;" x1="534.5" x2="675.5" y1="386" y2="386"/><ellipse cx="544.5" cy="397" fill="none" rx="3" ry="3" style="stroke: #038048; stroke-width: 1.0;"/><text fill="#000000" font-family="sans-serif" font-size="11" lengthAdjust="spacingAndGlyphs" textLength="47" x="553.5" y="401.7589">Code: int</text><ellipse cx="544.5" cy="411.9819" fill="none" rx="3" ry="3" style="stroke: #038048; stroke-width: 1.0;"/><text fill="#000000" font-family="sans-serif" font-size="11" lengthAdjust="spacingAndGlyphs" textLength="82" x="553.5" y="416.7408">Message: string</text><line style="stroke: #A80036; stroke-width: 1.5;" x1="534.5" x2="675.5" y1="423.9638" y2="423.9638"/><!--MD5=[1627f773094eccd22977139fff0e2d35]
class platform.Middleware--><rect fill="#FEFECE" filter="url(#f2fhpfejznna1)" height="62.9819" id="platform.Middleware" style="stroke: #A80036; stroke-width: 1.5;" width="221" x="37.5" y="361.5"/><ellipse cx="112.25" cy="377.5" fill="#B4A7E5" rx="11" ry="11" style="stroke: #A80036; stroke-width: 1.0;"/><path d="M108.1719,373.2656 L108.1719,371.1094 L115.5625,371.1094 L115.5625,373.2656 L113.0938,373.2656 L113.0938,381.3438 L115.5625,381.3438 L115.5625,383.5 L108.1719,383.5 L108.1719,381.3438 L110.6406,381.3438 L110.6406,373.2656 L108.1719,373.2656 Z "/><text fill="#000000" font-family="sans-serif" font-size="12" font-style="italic" lengthAdjust="spacingAndGlyphs" textLength="63" x="132.75" y="382.156">Middleware</text><line style="stroke: #A80036; stroke-width: 1.5;" x1="38.5" x2="257.5" y1="393.5" y2="393.5"/><line style="stroke: #A80036; stroke-width: 1.5;" x1="38.5" x2="257.5" y1="401.5" y2="401.5"/><rect fill="#F24D5C" height="6" style="stroke: #C82930; stroke-width: 1.0;" width="6" x="45.5" y="409.5"/><text fill="#000000" font-family="sans-serif" font-size="11" lengthAdjust="spacingAndGlyphs" textLength="195" x="57.5" y="417.2589">type: func(http.Handler) http.Handler</text><!--MD5=[7af7408ac16c8b6615c78c02e6fc903d]
class platform.Module--><rect fill="#FEFECE" filter="url(#f2fhpfejznna1)" height="107.9276" id="platform.Module" style="stroke: #A80036; stroke-width: 1.5;" width="205" x="293.5" y="339"/><ellipse cx="371.75" cy="355" fill="#B4A7E5" rx="11" ry="11" style="stroke: #A80036; stroke-width: 1.0;"/><path d="M367.6719,350.7656 L367.6719,348.6094 L375.0625,348.6094 L375.0625,350.7656 L372.5938,350.7656 L372.5938,358.8438 L375.0625,358.8438 L375.0625,361 L367.6719,361 L367.6719,358.8438 L370.1406,358.8438 L370.1406,350.7656 L367.6719,350.7656 Z "/><text fill="#000000" font-family="sans-serif" font-size="12" font-style="italic" lengthAdjust="spacingAndGlyphs" textLength="40" x="392.25" y="359.656">Module</text><line style="stroke: #A80036; stroke-width: 1.5;" x1="294.5" x2="497.5" y1="371" y2="371"/><line style="stroke: #A80036; stroke-width: 1.5;" x1="294.5" x2="497.5" y1="379" y2="379"/><ellipse cx="304.5" cy="390" fill="#84BE84" rx="3" ry="3" style="stroke: #038048; stroke-width: 1.0;"/><text fill="#000000" font-family="sans-serif" font-size="11" lengthAdjust="spacingAndGlyphs" textLength="109" x="313.5" y="394.7589">Name: Name () string</text><ellipse cx="304.5" cy="404.9819" fill="#84BE84" rx="3" ry="3" style="stroke: #038048; stroke-width: 1.0;"/><text fill="#000000" font-family="sans-serif" font-size="11" lengthAdjust="spacingAndGlyphs" textLength="179" x="313.5" y="409.7408">Start: Start (context.Context) error</text><ellipse cx="304.5" cy="419.9638" fill="#84BE84" rx="3" ry="3" style="stroke: #038048; stroke-width: 1.0;"/><text fill="#000000" font-family="sans-serif" font-size="11" lengthAdjust="spacingAndGlyphs" textLength="94" x="313.5" y="424.7227">Stop: Stop () error</text><ellipse cx="304.5" cy="434.9457" fill="#84BE84" rx="3" ry="3" style="stroke: #038048; stroke-width: 1.0;"/><text fill="#000000" font-family="sans-serif" font-size="11" lengthAdjust="spacingAndGlyphs" textLength="152" x="313.5" y="439.7046">Mount: Mount (Router) error</text><!--MD5=[358344282dfc8e3880b236ef018a4b77]
class platform.Options--><rect fill="#FEFECE" filter="url(#f2fhpfejznna1)" height="77.9638" id="platform.Options" style="stroke: #A80036; stroke-width: 1.5;" width="123" x="913.5" y="122"/><ellipse cx="950.1" cy="138" fill="#ADD1B2" rx="11" ry="11" style="stroke: #A80036; stroke-width: 1.0;"/><path d="M953.0688,143.6406 Q952.4906,143.9375 951.85,144.0781 Q951.2094,144.2344 950.5063,144.2344 Q948.0063,144.2344 946.6781,142.5938 Q945.3656,140.9375 945.3656,137.8125 Q945.3656,134.6875 946.6781,133.0313 Q948.0063,131.375 950.5063,131.375 Q951.2094,131.375 951.85,131.5313 Q952.5063,131.6875 953.0688,131.9844 L953.0688,134.7031 Q952.4438,134.125 951.85,133.8594 Q951.2563,133.5781 950.6313,133.5781 Q949.2875,133.5781 948.6,134.6563 Q947.9125,135.7188 947.9125,137.8125 Q947.9125,139.9063 948.6,140.9844 Q949.2875,142.0469 950.6313,142.0469 Q951.2563,142.0469 951.85,141.7813 Q952.4438,141.5 953.0688,140.9219 L953.0688,143.6406 Z "/><text fill="#000000" font-family="sans-serif" font-size="12" lengthAdjust="spacingAndGlyphs" textLength="43" x="968.9" y="142.656">Options</text><line style="stroke: #A80036; stroke-width: 1.5;" x1="914.5" x2="1035.5" y1="154" y2="154"/><ellipse cx="924.5" cy="165" fill="none" rx="3" ry="3" style="stroke: #038048; stroke-width: 1.0;"/><text fill="#000000" font-family="sans-serif" font-size="11" lengthAdjust="spacingAndGlyphs" textLength="97" x="933.5" y="169.7589">ServerAddr: string</text><ellipse cx="924.5" cy="179.9819" fill="none" rx="3" ry="3" style="stroke: #038048; stroke-width: 1.0;"/><text fill="#000000" font-family="sans-serif" font-size="11" lengthAdjust="spacingAndGlyphs" textLength="59" x="933.5" y="184.7408">Quiet: bool</text><line style="stroke: #A80036; stroke-width: 1.5;" x1="914.5" x2="1035.5" y1="191.9638" y2="191.9638"/><!--MD5=[89a2371b9a67e1b5a991d2e2bed80456]
class platform.Platform--><rect fill="#FEFECE" filter="url(#f2fhpfejznna1)" height="182.837" id="platform.Platform" style="stroke: #A80036; stroke-width: 1.5;" width="165" x="1071.5" y="69.5"/><ellipse cx="1125.75" cy="85.5" fill="#B4A7E5" rx="11" ry="11" style="stroke: #A80036; stroke-width: 1.0;"/><path d="M1121.6719,81.2656 L1121.6719,79.1094 L1129.0625,79.1094 L1129.0625,81.2656 L1126.5938,81.2656 L1126.5938,89.3438 L1129.0625,89.3438 L1129.0625,91.5 L1121.6719,91.5 L1121.6719,89.3438 L1124.1406,89.3438 L1124.1406,81.2656 L1121.6719,81.2656 Z "/><text fill="#000000" font-family="sans-serif" font-size="12" font-style="italic" lengthAdjust="spacingAndGlyphs" textLength="48" x="1146.25" y="90.156">Platform</text><line style="stroke: #A80036; stroke-width: 1.5;" x1="1072.5" x2="1235.5" y1="101.5" y2="101.5"/><rect fill="none" height="6" style="stroke: #C82930; stroke-width: 1.0;" width="6" x="1079.5" y="109.5"/><text fill="#000000" font-family="sans-serif" font-size="11" lengthAdjust="spacingAndGlyphs" textLength="94" x="1091.5" y="117.2589">options: *Options</text><rect fill="none" height="6" style="stroke: #C82930; stroke-width: 1.0;" width="6" x="1079.5" y="124.4819"/><text fill="#000000" font-family="sans-serif" font-size="11" lengthAdjust="spacingAndGlyphs" textLength="87" x="1091.5" y="132.2408">router: *chi.Mux</text><rect fill="none" height="6" style="stroke: #C82930; stroke-width: 1.0;" width="6" x="1079.5" y="139.4638"/><text fill="#000000" font-family="sans-serif" font-size="11" lengthAdjust="spacingAndGlyphs" textLength="104" x="1091.5" y="147.2227">server: *http.Server</text><rect fill="none" height="6" style="stroke: #C82930; stroke-width: 1.0;" width="6" x="1079.5" y="154.4457"/><text fill="#000000" font-family="sans-serif" font-size="11" lengthAdjust="spacingAndGlyphs" textLength="107" x="1091.5" y="162.2046">listener: net.Listener</text><rect fill="none" height="6" style="stroke: #C82930; stroke-width: 1.0;" width="6" x="1079.5" y="169.4276"/><text fill="#000000" font-family="sans-serif" font-size="11" lengthAdjust="spacingAndGlyphs" textLength="128" x="1091.5" y="177.1865">context: context.Context</text><rect fill="none" height="6" style="stroke: #C82930; stroke-width: 1.0;" width="6" x="1079.5" y="184.4094"/><text fill="#000000" font-family="sans-serif" font-size="11" lengthAdjust="spacingAndGlyphs" textLength="139" x="1091.5" y="192.1684">cancel: context.CancelFunc</text><rect fill="none" height="6" style="stroke: #C82930; stroke-width: 1.0;" width="6" x="1079.5" y="199.3913"/><text fill="#000000" font-family="sans-serif" font-size="11" lengthAdjust="spacingAndGlyphs" textLength="84" x="1091.5" y="207.1502">once: sync.Once</text><rect fill="none" height="6" style="stroke: #C82930; stroke-width: 1.0;" width="6" x="1079.5" y="214.3732"/><text fill="#000000" font-family="sans-serif" font-size="11" lengthAdjust="spacingAndGlyphs" textLength="96" x="1091.5" y="222.1321">registry: *Registry</text><line style="stroke: #A80036; stroke-width: 1.5;" x1="1072.5" x2="1235.5" y1="229.3551" y2="229.3551"/><rect fill="#F24D5C" height="6" style="stroke: #C82930; stroke-width: 1.0;" width="6" x="1079.5" y="237.3551"/><text fill="#000000" font-family="sans-serif" font-size="11" lengthAdjust="spacingAndGlyphs" textLength="58" x="1091.5" y="245.114">stop: func()</text><!--MD5=[4a6a894fdff7f4e5dbd894e3f89ef842]
class platform.Registry--><rect fill="#FEFECE" filter="url(#f2fhpfejznna1)" height="197.8189" id="platform.Registry" style="stroke: #A80036; stroke-width: 1.5;" width="260" x="38" y="62"/><ellipse cx="141.25" cy="78" fill="#ADD1B2" rx="11" ry="11" style="stroke: #A80036; stroke-width: 1.0;"/><path d="M144.2188,83.6406 Q143.6406,83.9375 143,84.0781 Q142.3594,84.2344 141.6563,84.2344 Q139.1563,84.2344 137.8281,82.5938 Q136.5156,80.9375 136.5156,77.8125 Q136.5156,74.6875 137.8281,73.0313 Q139.1563,71.375 141.6563,71.375 Q142.3594,71.375 143,71.5313 Q143.6563,71.6875 144.2188,71.9844 L144.2188,74.7031 Q143.5938,74.125 143,73.8594 Q142.4063,73.5781 141.7813,73.5781 Q140.4375,73.5781 139.75,74.6563 Q139.0625,75.7188 139.0625,77.8125 Q139.0625,79.9063 139.75,80.9844 Q140.4375,82.0469 141.7813,82.0469 Q142.4063,82.0469 143,81.7813 Q143.5938,81.5 144.2188,80.9219 L144.2188,83.6406 Z "/><text fill="#000000" font-family="sans-serif" font-size="12" lengthAdjust="spacingAndGlyphs" textLength="45" x="161.75" y="82.656">Registry</text><line style="stroke: #A80036; stroke-width: 1.5;" x1="39" x2="297" y1="94" y2="94"/><rect fill="none" height="6" style="stroke: #C82930; stroke-width: 1.0;" width="6" x="46" y="102"/><text fill="#000000" font-family="sans-serif" font-size="11" lengthAdjust="spacingAndGlyphs" textLength="99" x="58" y="109.7589">mu: sync.RWMutex</text><rect fill="none" height="6" style="stroke: #C82930; stroke-width: 1.0;" width="6" x="46" y="116.9819"/><text fill="#000000" font-family="sans-serif" font-size="11" lengthAdjust="spacingAndGlyphs" textLength="99" x="58" y="124.7408">modules: []Module</text><rect fill="none" height="6" style="stroke: #C82930; stroke-width: 1.0;" width="6" x="46" y="131.9638"/><text fill="#000000" font-family="sans-serif" font-size="11" lengthAdjust="spacingAndGlyphs" textLength="138" x="58" y="139.7227">middleware: []Middleware</text><line style="stroke: #A80036; stroke-width: 1.5;" x1="39" x2="297" y1="146.9457" y2="146.9457"/><ellipse cx="49" cy="157.9457" fill="#84BE84" rx="3" ry="3" style="stroke: #038048; stroke-width: 1.0;"/><text fill="#000000" font-family="sans-serif" font-size="11" lengthAdjust="spacingAndGlyphs" textLength="91" x="58" y="162.7046">Clone () *Registry</text><ellipse cx="49" cy="172.9276" fill="#84BE84" rx="3" ry="3" style="stroke: #038048; stroke-width: 1.0;"/><text fill="#000000" font-family="sans-serif" font-size="11" lengthAdjust="spacingAndGlyphs" textLength="37" x="58" y="177.6865">Close ()</text><ellipse cx="49" cy="187.9094" fill="#84BE84" rx="3" ry="3" style="stroke: #038048; stroke-width: 1.0;"/><text fill="#000000" font-family="sans-serif" font-size="11" lengthAdjust="spacingAndGlyphs" textLength="113" x="58" y="192.6684">Find (target any) bool</text><ellipse cx="49" cy="202.8913" fill="#84BE84" rx="3" ry="3" style="stroke: #038048; stroke-width: 1.0;"/><text fill="#000000" font-family="sans-serif" font-size="11" lengthAdjust="spacingAndGlyphs" textLength="105" x="58" y="207.6502">Register (m Module)</text><ellipse cx="49" cy="217.8732" fill="#84BE84" rx="3" ry="3" style="stroke: #038048; stroke-width: 1.0;"/><text fill="#000000" font-family="sans-serif" font-size="11" lengthAdjust="spacingAndGlyphs" textLength="234" x="58" y="222.6321">Start (ctx context.Context, mux Router) error</text><ellipse cx="49" cy="232.8551" fill="#84BE84" rx="3" ry="3" style="stroke: #038048; stroke-width: 1.0;"/><text fill="#000000" font-family="sans-serif" font-size="11" lengthAdjust="spacingAndGlyphs" textLength="51" x="58" y="237.614">Stats () int</text><ellipse cx="49" cy="247.837" fill="#84BE84" rx="3" ry="3" style="stroke: #038048; stroke-width: 1.0;"/><text fill="#000000" font-family="sans-serif" font-size="11" lengthAdjust="spacingAndGlyphs" textLength="97" x="58" y="252.5959">Use (f Middleware)</text><!--MD5=[03302acdce61aa09c6ac2a47a3ed280c]
class platform.Router--><rect fill="#FEFECE" filter="url(#f2fhpfejznna1)" height="62.9819" id="platform.Router" style="stroke: #A80036; stroke-width: 1.5;" width="109" x="711.5" y="361.5"/><ellipse cx="744.5" cy="377.5" fill="#ADD1B2" rx="11" ry="11" style="stroke: #A80036; stroke-width: 1.0;"/><path d="M747.4688,383.1406 Q746.8906,383.4375 746.25,383.5781 Q745.6094,383.7344 744.9063,383.7344 Q742.4063,383.7344 741.0781,382.0938 Q739.7656,380.4375 739.7656,377.3125 Q739.7656,374.1875 741.0781,372.5313 Q742.4063,370.875 744.9063,370.875 Q745.6094,370.875 746.25,371.0313 Q746.9063,371.1875 747.4688,371.4844 L747.4688,374.2031 Q746.8438,373.625 746.25,373.3594 Q745.6563,373.0781 745.0313,373.0781 Q743.6875,373.0781 743,374.1563 Q742.3125,375.2188 742.3125,377.3125 Q742.3125,379.4063 743,380.4844 Q743.6875,381.5469 745.0313,381.5469 Q745.6563,381.5469 746.25,381.2813 Q746.8438,381 747.4688,380.4219 L747.4688,383.1406 Z "/><text fill="#000000" font-family="sans-serif" font-size="12" lengthAdjust="spacingAndGlyphs" textLength="37" x="762.5" y="382.156">Router</text><line style="stroke: #A80036; stroke-width: 1.5;" x1="712.5" x2="819.5" y1="393.5" y2="393.5"/><rect fill="none" height="6" style="stroke: #C82930; stroke-width: 1.0;" width="6" x="719.5" y="401.5"/><text fill="#000000" font-family="sans-serif" font-size="11" lengthAdjust="spacingAndGlyphs" textLength="83" x="731.5" y="409.2589">type: chi.Router</text><line style="stroke: #A80036; stroke-width: 1.5;" x1="712.5" x2="819.5" y1="416.4819" y2="416.4819"/><!--MD5=[add30b93225d231acb95dc49d76c1811]
class platform.UnimplementedModule--><rect fill="#FEFECE" filter="url(#f2fhpfejznna1)" height="107.9276" id="platform.UnimplementedModule" style="stroke: #A80036; stroke-width: 1.5;" width="213" x="855.5" y="339"/><ellipse cx="895.25" cy="355" fill="#B4A7E5" rx="11" ry="11" style="stroke: #A80036; stroke-width: 1.0;"/><path d="M891.1719,350.7656 L891.1719,348.6094 L898.5625,348.6094 L898.5625,350.7656 L896.0938,350.7656 L896.0938,358.8438 L898.5625,358.8438 L898.5625,361 L891.1719,361 L891.1719,358.8438 L893.6406,358.8438 L893.6406,350.7656 L891.1719,350.7656 Z "/><text fill="#000000" font-family="sans-serif" font-size="12" font-style="italic" lengthAdjust="spacingAndGlyphs" textLength="126" x="914.75" y="359.656">UnimplementedModule</text><line style="stroke: #A80036; stroke-width: 1.5;" x1="856.5" x2="1067.5" y1="371" y2="371"/><line style="stroke: #A80036; stroke-width: 1.5;" x1="856.5" x2="1067.5" y1="379" y2="379"/><ellipse cx="866.5" cy="390" fill="#84BE84" rx="3" ry="3" style="stroke: #038048; stroke-width: 1.0;"/><text fill="#000000" font-family="sans-serif" font-size="11" lengthAdjust="spacingAndGlyphs" textLength="112" x="875.5" y="394.7589">NameFn: func() string</text><ellipse cx="866.5" cy="404.9819" fill="#84BE84" rx="3" ry="3" style="stroke: #038048; stroke-width: 1.0;"/><text fill="#000000" font-family="sans-serif" font-size="11" lengthAdjust="spacingAndGlyphs" textLength="187" x="875.5" y="409.7408">StartFn: func(context.Context) error</text><ellipse cx="866.5" cy="419.9638" fill="#84BE84" rx="3" ry="3" style="stroke: #038048; stroke-width: 1.0;"/><text fill="#000000" font-family="sans-serif" font-size="11" lengthAdjust="spacingAndGlyphs" textLength="103" x="875.5" y="424.7227">StopFn: func() error</text><ellipse cx="866.5" cy="434.9457" fill="#84BE84" rx="3" ry="3" style="stroke: #038048; stroke-width: 1.0;"/><text fill="#000000" font-family="sans-serif" font-size="11" lengthAdjust="spacingAndGlyphs" textLength="150" x="875.5" y="439.7046">MountFn: func(Router) error</text><!--MD5=[2ebeda91e2a6c17c7893f4f2c4d9c560]
link pkg.httpcontext.Value[T any] to pkg.httpcontext.any--><path d="M1821,192.54 C1821,237.4 1821,320.46 1821,363.89 " fill="none" id="pkg.httpcontext.Value[T any]-&gt;pkg.httpcontext.any" style="stroke: #A80036; stroke-width: 1.0;"/><polygon fill="#A80036" points="1821,368.98,1825,359.98,1821,363.98,1817,359.98,1821,368.98" style="stroke: #A80036; stroke-width: 1.0;"/><text fill="#000000" font-family="sans-serif" font-size="13" lengthAdjust="spacingAndGlyphs" textLength="25" x="1822" y="304.897">.Key</text><!--MD5=[18c80c55e6b8c6dbadea28db3d2382e9]
link platform.ErrorResponse to platform.ErrorResponseBody--><path d="M441.1,192.54 C474.24,232.87 532.76,304.09 570.17,349.61 " fill="none" id="platform.ErrorResponse-&gt;platform.ErrorResponseBody" style="stroke: #A80036; stroke-width: 1.0;"/><polygon fill="#A80036" points="573.5,353.66,570.8738,344.1677,570.3245,349.7979,564.6943,349.2486,573.5,353.66" style="stroke: #A80036; stroke-width: 1.0;"/><text fill="#000000" font-family="sans-serif" font-size="13" lengthAdjust="spacingAndGlyphs" textLength="33" x="534" y="304.897">.Error</text><!--MD5=[e3b860f28c5afe3bc1f819c62c72f835]
link platform.Registry to platform.Module--><path d="M265.35,260.21 C290.74,285.82 317.26,312.57 339.72,335.22 " fill="none" id="platform.Registry-&gt;platform.Module" style="stroke: #A80036; stroke-width: 1.0;"/><polygon fill="#A80036" points="343.29,338.82,339.8102,329.6064,339.776,335.2631,334.1192,335.2288,343.29,338.82" style="stroke: #A80036; stroke-width: 1.0;"/><text fill="#000000" font-family="sans-serif" font-size="13" lengthAdjust="spacingAndGlyphs" textLength="55" x="311" y="304.897">.modules</text><!--MD5=[b9c6f07f2496d5ded784642acf3d07dc]
link platform.Registry to platform.Middleware--><path d="M159.46,260.21 C156.49,294.32 153.35,330.44 151.11,356.23 " fill="none" id="platform.Registry-&gt;platform.Middleware" style="stroke: #A80036; stroke-width: 1.0;"/><polygon fill="#A80036" points="150.67,361.24,155.4261,352.6156,151.0982,356.2584,147.4555,351.9305,150.67,361.24" style="stroke: #A80036; stroke-width: 1.0;"/><text fill="#000000" font-family="sans-serif" font-size="13" lengthAdjust="spacingAndGlyphs" textLength="73" x="158" y="304.897">.middleware</text><!--MD5=[4dc0a7eadcf9e4d23ec2ea4c41b2507a]
link platform.DatabaseProvider to platform.Options--><!--MD5=[bf48dbb1d6e71312169c5454a878bc25]
link platform.Options to platform.Platform--><!--MD5=[da69b8f63118d314bb6c53ec95cafa94]
link platform.DatabaseProvider to platform.Router--><!--MD5=[b69fa2d9437b1ccdf5c68382e95472b5]
link platform.Router to platform.UnimplementedModule--><!--MD5=[5e71b004d16e475f8b1d9346be7d06bf]
@startuml

class "internal.DatabaseOption" {
  + MaxOpenConns: int
  + MaxIdleConns: int
  + Apply (client *sqlx.DB)
}

interface "internal.DatabaseProvider" {
  - open: func(string, string) (*sqlx.DB, error)
  - mu: sync.Mutex
  - cache: map[string]*sqlx.DB
  - credentials: map[string]string
}

class "pkg.httpcontext.Value[T any]" {
  + Key: any
}

class "pkg.telemetry.Monitor" {
  - mu: sync.Mutex
  - enabled: bool
  - state: map[string]*expvar.Int
  + Enabled () bool
  + SetEnabled (enabled bool)
  + Touch (name string)
}

interface "platform.DatabaseProvider" {
  + Open: Open (...string) (*sqlx.DB, error)
  + Connect: Connect (context.Context, ...string) (*sqlx.DB, error)
}

class "platform.ErrorResponse" {
  + Error: ErrorResponseBody
}

class "platform.ErrorResponseBody" {
  + Code: int
  + Message: string
}

interface "platform.Middleware" {
  - type: func(http.Handler) http.Handler
}

interface "platform.Module" {
  + Name: Name () string
  + Start: Start (context.Context) error
  + Stop: Stop () error
  + Mount: Mount (Router) error
}

class "platform.Options" {
  + ServerAddr: string
  + Quiet: bool
}

interface "platform.Platform" {
  - options: *Options
  - router: *chi.Mux
  - server: *http.Server
  - listener: net.Listener
  - context: context.Context
  - cancel: context.CancelFunc
  - stop: func()
  - once: sync.Once
  - registry: *Registry
}

class "platform.Registry" {
  - mu: sync.RWMutex
  - modules: []Module
  - middleware: []Middleware
  + Clone () *Registry
  + Close ()
  + Find (target any) bool
  + Register (m Module)
  + Start (ctx context.Context, mux Router) error
  + Stats () int
  + Use (f Middleware)
}

class "platform.Router" {
  - type: chi.Router
}

interface "platform.UnimplementedModule" {
  + NameFn: func() string
  + StartFn: func(context.Context) error
  + StopFn: func() error
  + MountFn: func(Router) error
}



"pkg.httpcontext.Value[T any]" - -> "pkg.httpcontext.any" : .Key



"platform.ErrorResponse" - -> "platform.ErrorResponseBody" : .Error






"platform.Registry" - -> "platform.Module" : .modules
"platform.Registry" - -> "platform.Middleware" : .middleware




@enduml

PlantUML version 1.2020.02(Sun Mar 01 11:22:07 CET 2020)
(GPL source distribution)
Java Runtime: OpenJDK Runtime Environment
JVM: OpenJDK 64-Bit Server VM
Java Version: 21.0.8+9-Ubuntu-0ubuntu125.04.1
Operating System: Linux
Default Encoding: UTF-8
Language: en
Country: US
--></g></svg>