<?xml version="1.0" encoding="UTF-8" standalone="no"?><svg xmlns="http://www.w3.org/2000/svg" xmlns:xlink="http://www.w3.org/1999/xlink" contentScriptType="application/ecmascript" contentStyleType="text/css" height="580px" preserveAspectRatio="none" style="width:2080px;height:580px;" version="1.1" viewBox="0 0 2080 580" width="2080px" zoomAndPan="magnify"><defs><filter height="300%" id="f7mwngfvjj688" width="300%" x="-1" y="-1"><feGaussianBlur result="blurOut" stdDeviation="2.0"/><feColorMatrix in="blurOut" result="blurOut2" type="matrix" values="0 0 0 0 0 0 0 0 0 0 0 0 0 0 0 0 0 0 .4 0"/><feOffset dx="4.0" dy="4.0" in="blurOut2" result="blurOut3"/><feBlend in="SourceGraphic" in2="blurOut3" mode="normal"/></filter></defs><g><!--MD5=[c27d767109b3913d4718b358a17ad24a]
cluster internal--><polygon fill="#FFFFFF" filter="url(#f7mwngfvjj688)" points="1211,84,1271,84,1278,109.0679,1664,109.0679,1664,246,1211,246,1211,84" style="stroke: #000000; stroke-width: 1.5;"/><line style="stroke: #000000; stroke-width: 1.5;" x1="1211" x2="1278" y1="109.0679" y2="109.0679"/><text fill="#000000" font-family="sans-serif" font-size="14" font-weight="bold" lengthAdjust="spacingAndGlyphs" textLength="54" x="1215" y="100.9659">internal</text><!--MD5=[66de46875e9ca6c2e5f1890fb81f9fe4]
cluster pkg.httpcontext--><polygon fill="#FFFFFF" filter="url(#f7mwngfvjj688)" points="1688,106.5,1808,106.5,1815,131.5679,1822,131.5679,1822,500.5,1688,500.5,1688,106.5" style="stroke: #000000; stroke-width: 1.5;"/><line style="stroke: #000000; stroke-width: 1.5;" x1="1688" x2="1815" y1="131.5679" y2="131.5679"/><text fill="#000000" font-family="sans-serif" font-size="14" font-weight="bold" lengthAdjust="spacingAndGlyphs" textLength="114" x="1692" y="123.4659">pkg.httpcontext</text><!--MD5=[d90c695c32d4e95bb9451c21e63b0bfd]
cluster pkg.telemetry--><polygon fill="#FFFFFF" filter="url(#f7mwngfvjj688)" points="1846,69,1951,69,1958,94.0679,2058,94.0679,2058,261,1846,261,1846,69" style="stroke: #000000; stroke-width: 1.5;"/><line style="stroke: #000000; stroke-width: 1.5;" x1="1846" x2="1958" y1="94.0679" y2="94.0679"/><text fill="#000000" font-family="sans-serif" font-size="14" font-weight="bold" lengthAdjust="spacingAndGlyphs" textLength="99" x="1850" y="85.9659">pkg.telemetry</text><!--MD5=[d841c4c2f84d4e18d352f800547f43fc]
cluster platform--><polygon fill="#FFFFFF" filter="url(#f7mwngfvjj688)" points="22,24,89,24,96,49.0679,1187,49.0679,1187,568,22,568,22,24" style="stroke: #000000; stroke-width: 1.5;"/><line style="stroke: #000000; stroke-width: 1.5;" x1="22" x2="96" y1="49.0679" y2="49.0679"/><text fill="#000000" font-family="sans-serif" font-size="14" font-weight="bold" lengthAdjust="spacingAndGlyphs" textLength="61" x="26" y="40.9659">platform</text><!--MD5=[98c17e746b1aec6ba8c0d376f06b2a22]
class internal.DatabaseOption--><rect fill="#FEFECE" filter="url(#f7mwngfvjj688)" height="92.9457" id="internal.DatabaseOption" style="stroke: #A80036; stroke-width: 1.5;" width="141" x="1506.5" y="129.5"/><ellipse cx="1529.6" cy="145.5" fill="#ADD1B2" rx="11" ry="11" style="stroke: #A80036; stroke-width: 1.0;"/><path d="M1532.5688,151.1406 Q1531.9906,151.4375 1531.35,151.5781 Q1530.7094,151.7344 1530.0063,151.7344 Q1527.5063,151.7344 1526.1781,150.0938 Q1524.8656,148.4375 1524.8656,145.3125 Q1524.8656,142.1875 1526.1781,140.5313 Q1527.5063,138.875 1530.0063,138.875 Q1530.7094,138.875 1531.35,139.0313 Q1532.0063,139.1875 1532.5688,139.4844 L1532.5688,142.2031 Q1531.9438,141.625 1531.35,141.3594 Q1530.7563,141.0781 1530.1313,141.0781 Q1528.7875,141.0781 1528.1,142.1563 Q1527.4125,143.2188 1527.4125,145.3125 Q1527.4125,147.4063 1528.1,148.4844 Q1528.7875,149.5469 1530.1313,149.5469 Q1530.7563,149.5469 1531.35,149.2813 Q1531.9438,149 1532.5688,148.4219 L1532.5688,151.1406 Z "/><text fill="#000000" font-family="sans-serif" font-size="12" lengthAdjust="spacingAndGlyphs" textLength="91" x="1545.4" y="150.156">DatabaseOption</text><line style="stroke: #A80036; stroke-width: 1.5;" x1="1507.5" x2="1646.5" y1="161.5" y2="161.5"/><ellipse cx="1517.5" cy="172.5" fill="none" rx="3" ry="3" style="stroke: #038048; stroke-width: 1.0;"/><text fill="#000000" font-family="sans-serif" font-size="11" lengthAdjust="spacingAndGlyphs" textLength="104" x="1526.5" y="177.2589">MaxOpenConns: int</text><ellipse cx="1517.5" cy="187.4819" fill="none" rx="3" ry="3" style="stroke: #038048; stroke-width: 1.0;"/><text fill="#000000" font-family="sans-serif" font-size="11" lengthAdjust="spacingAndGlyphs" textLength="95" x="1526.5" y="192.2408">MaxIdleConns: int</text><line style="stroke: #A80036; stroke-width: 1.5;" x1="1507.5" x2="1646.5" y1="199.4638" y2="199.4638"/><ellipse cx="1517.5" cy="210.4638" fill="#84BE84" rx="3" ry="3" style="stroke: #038048; stroke-width: 1.0;"/><text fill="#000000" font-family="sans-serif" font-size="11" lengthAdjust="spacingAndGlyphs" textLength="115" x="1526.5" y="215.2227">Apply (client *sqlx.DB)</text><!--MD5=[81606ba0f826459e1b602f9ff0101a6f]
class internal.DatabaseProvider--><rect fill="#FEFECE" filter="url(#f7mwngfvjj688)" height="107.9276" id="internal.DatabaseProvider" style="stroke: #A80036; stroke-width: 1.5;" width="244" x="1227" y="122"/><ellipse cx="1296.25" cy="138" fill="#B4A7E5" rx="11" ry="11" style="stroke: #A80036; stroke-width: 1.0;"/><path d="M1292.1719,133.7656 L1292.1719,131.6094 L1299.5625,131.6094 L1299.5625,133.7656 L1297.0938,133.7656 L1297.0938,141.8438 L1299.5625,141.8438 L1299.5625,144 L1292.1719,144 L1292.1719,141.8438 L1294.6406,141.8438 L1294.6406,133.7656 L1292.1719,133.7656 Z "/><text fill="#000000" font-family="sans-serif" font-size="12" font-style="italic" lengthAdjust="spacingAndGlyphs" textLength="97" x="1316.75" y="142.656">DatabaseProvider</text><line style="stroke: #A80036; stroke-width: 1.5;" x1="1228" x2="1470" y1="154" y2="154"/><rect fill="none" height="6" style="stroke: #C82930; stroke-width: 1.0;" width="6" x="1235" y="162"/><text fill="#000000" font-family="sans-serif" font-size="11" lengthAdjust="spacingAndGlyphs" textLength="82" x="1247" y="169.7589">mu: sync.Mutex</text><rect fill="none" height="6" style="stroke: #C82930; stroke-width: 1.0;" width="6" x="1235" y="176.9819"/><text fill="#000000" font-family="sans-serif" font-size="11" lengthAdjust="spacingAndGlyphs" textLength="142" x="1247" y="184.7408">cache: map[string]*sqlx.DB</text><rect fill="none" height="6" style="stroke: #C82930; stroke-width: 1.0;" width="6" x="1235" y="191.9638"/><text fill="#000000" font-family="sans-serif" font-size="11" lengthAdjust="spacingAndGlyphs" textLength="156" x="1247" y="199.7227">credentials: map[string]string</text><line style="stroke: #A80036; stroke-width: 1.5;" x1="1228" x2="1470" y1="206.9457" y2="206.9457"/><rect fill="#F24D5C" height="6" style="stroke: #C82930; stroke-width: 1.0;" width="6" x="1235" y="214.9457"/><text fill="#000000" font-family="sans-serif" font-size="11" lengthAdjust="spacingAndGlyphs" textLength="218" x="1247" y="222.7046">open: func(string, string) (*sqlx.DB, error)</text><!--MD5=[de03c539a5891f1233edfc307f400ecf]
class pkg.httpcontext.Value[T any]--><rect fill="#FEFECE" filter="url(#f7mwngfvjj688)" height="62.9819" id="pkg.httpcontext.Value[T any]" style="stroke: #A80036; stroke-width: 1.5;" width="101" x="1704.5" y="144.5"/><ellipse cx="1719.5" cy="160.5" fill="#ADD1B2" rx="11" ry="11" style="stroke: #A80036; stroke-width: 1.0;"/><path d="M1722.4688,166.1406 Q1721.8906,166.4375 1721.25,166.5781 Q1720.6094,166.7344 1719.9063,166.7344 Q1717.4063,166.7344 1716.0781,165.0938 Q1714.7656,163.4375 1714.7656,160.3125 Q1714.7656,157.1875 1716.0781,155.5313 Q1717.4063,153.875 1719.9063,153.875 Q1720.6094,153.875 1721.25,154.0313 Q1721.9063,154.1875 1722.4688,154.4844 L1722.4688,157.2031 Q1721.8438,156.625 1721.25,156.3594 Q1720.6563,156.0781 1720.0313,156.0781 Q1718.6875,156.0781 1718,157.1563 Q1717.3125,158.2188 1717.3125,160.3125 Q1717.3125,162.4063 1718,163.4844 Q1718.6875,164.5469 1720.0313,164.5469 Q1720.6563,164.5469 1721.25,164.2813 Q1721.8438,164 1722.4688,163.4219 L1722.4688,166.1406 Z "/><text fill="#000000" font-family="sans-serif" font-size="12" lengthAdjust="spacingAndGlyphs" textLength="69" x="1733.5" y="165.156">Value[T any]</text><line style="stroke: #A80036; stroke-width: 1.5;" x1="1705.5" x2="1804.5" y1="176.5" y2="176.5"/><ellipse cx="1715.5" cy="187.5" fill="none" rx="3" ry="3" style="stroke: #038048; stroke-width: 1.0;"/><text fill="#000000" font-family="sans-serif" font-size="11" lengthAdjust="spacingAndGlyphs" textLength="44" x="1724.5" y="192.2589">Key: any</text><line style="stroke: #A80036; stroke-width: 1.5;" x1="1705.5" x2="1804.5" y1="199.4819" y2="199.4819"/><!--MD5=[94413c9a958ede3aa383f4bf6cbf7c55]
class pkg.httpcontext.any--><rect fill="#FEFECE" filter="url(#f7mwngfvjj688)" height="48" id="pkg.httpcontext.any" style="stroke: #A80036; stroke-width: 1.5;" width="52" x="1729" y="436.5"/><ellipse cx="1744" cy="452.5" fill="#ADD1B2" rx="11" ry="11" style="stroke: #A80036; stroke-width: 1.0;"/><path d="M1746.9688,458.1406 Q1746.3906,458.4375 1745.75,458.5781 Q1745.1094,458.7344 1744.4063,458.7344 Q1741.9063,458.7344 1740.5781,457.0938 Q1739.2656,455.4375 1739.2656,452.3125 Q1739.2656,449.1875 1740.5781,447.5313 Q1741.9063,445.875 1744.4063,445.875 Q1745.1094,445.875 1745.75,446.0313 Q1746.4063,446.1875 1746.9688,446.4844 L1746.9688,449.2031 Q1746.3438,448.625 1745.75,448.3594 Q1745.1563,448.0781 1744.5313,448.0781 Q1743.1875,448.0781 1742.5,449.1563 Q1741.8125,450.2188 1741.8125,452.3125 Q1741.8125,454.4063 1742.5,455.4844 Q1743.1875,456.5469 1744.5313,456.5469 Q1745.1563,456.5469 1745.75,456.2813 Q1746.3438,456 1746.9688,455.4219 L1746.9688,458.1406 Z "/><text fill="#000000" font-family="sans-serif" font-size="12" lengthAdjust="spacingAndGlyphs" textLength="20" x="1758" y="457.156">any</text><line style="stroke: #A80036; stroke-width: 1.5;" x1="1730" x2="1780" y1="468.5" y2="468.5"/><line style="stroke: #A80036; stroke-width: 1.5;" x1="1730" x2="1780" y1="476.5" y2="476.5"/><!--MD5=[9f7baa3bd5ce22608ae8a8de3db087f1]
class pkg.telemetry.Monitor--><rect fill="#FEFECE" filter="url(#f7mwngfvjj688)" height="137.8913" id="pkg.telemetry.Monitor" style="stroke: #A80036; stroke-width: 1.5;" width="179" x="1862.5" y="107"/><ellipse cx="1925.75" cy="123" fill="#ADD1B2" rx="11" ry="11" style="stroke: #A80036; stroke-width: 1.0;"/><path d="M1928.7188,128.6406 Q1928.1406,128.9375 1927.5,129.0781 Q1926.8594,129.2344 1926.1563,129.2344 Q1923.6563,129.2344 1922.3281,127.5938 Q1921.0156,125.9375 1921.0156,122.8125 Q1921.0156,119.6875 1922.3281,118.0313 Q1923.6563,116.375 1926.1563,116.375 Q1926.8594,116.375 1927.5,116.5313 Q1928.1563,116.6875 1928.7188,116.9844 L1928.7188,119.7031 Q1928.0938,119.125 1927.5,118.8594 Q1926.9063,118.5781 1926.2813,118.5781 Q1924.9375,118.5781 1924.25,119.6563 Q1923.5625,120.7188 1923.5625,122.8125 Q1923.5625,124.9063 1924.25,125.9844 Q1924.9375,127.0469 1926.2813,127.0469 Q1926.9063,127.0469 1927.5,126.7813 Q1928.0938,126.5 1928.7188,125.9219 L1928.7188,128.6406 Z "/><text fill="#000000" font-family="sans-serif" font-size="12" lengthAdjust="spacingAndGlyphs" textLength="44" x="1946.25" y="127.656">Monitor</text><line style="stroke: #A80036; stroke-width: 1.5;" x1="1863.5" x2="2040.5" y1="139" y2="139"/><rect fill="none" height="6" style="stroke: #C82930; stroke-width: 1.0;" width="6" x="1870.5" y="147"/><text fill="#000000" font-family="sans-serif" font-size="11" lengthAdjust="spacingAndGlyphs" textLength="82" x="1882.5" y="154.7589">mu: sync.Mutex</text><rect fill="none" height="6" style="stroke: #C82930; stroke-width: 1.0;" width="6" x="1870.5" y="161.9819"/><text fill="#000000" font-family="sans-serif" font-size="11" lengthAdjust="spacingAndGlyphs" textLength="72" x="1882.5" y="169.7408">enabled: bool</text><rect fill="none" height="6" style="stroke: #C82930; stroke-width: 1.0;" width="6" x="1870.5" y="176.9638"/><text fill="#000000" font-family="sans-serif" font-size="11" lengthAdjust="spacingAndGlyphs" textLength="153" x="1882.5" y="184.7227">state: map[string]*expvar.Int</text><line style="stroke: #A80036; stroke-width: 1.5;" x1="1863.5" x2="2040.5" y1="191.9457" y2="191.9457"/><ellipse cx="1873.5" cy="202.9457" fill="#84BE84" rx="3" ry="3" style="stroke: #038048; stroke-width: 1.0;"/><text fill="#000000" font-family="sans-serif" font-size="11" lengthAdjust="spacingAndGlyphs" textLength="78" x="1882.5" y="207.7046">Enabled () bool</text><ellipse cx="1873.5" cy="217.9276" fill="#84BE84" rx="3" ry="3" style="stroke: #038048; stroke-width: 1.0;"/><text fill="#000000" font-family="sans-serif" font-size="11" lengthAdjust="spacingAndGlyphs" textLength="136" x="1882.5" y="222.6865">SetEnabled (enabled bool)</text><ellipse cx="1873.5" cy="232.9094" fill="#84BE84" rx="3" ry="3" style="stroke: #038048; stroke-width: 1.0;"/><text fill="#000000" font-family="sans-serif" font-size="11" lengthAdjust="spacingAndGlyphs" textLength="104" x="1882.5" y="237.6684">Touch (name string)</text><!--MD5=[7de3ec76c7fd8a33a0ea4e6eeda76880]
class platform.DatabaseProvider--><rect fill="#FEFECE" filter="url(#f7mwngfvjj688)" height="77.9638" id="platform.DatabaseProvider" style="stroke: #A80036; stroke-width: 1.5;" width="399" x="613.5" y="137"/><ellipse cx="760.25" cy="153" fill="#B4A7E5" rx="11" ry="11" style="stroke: #A80036; stroke-width: 1.0;"/><path d="M756.1719,148.7656 L756.1719,146.6094 L763.5625,146.6094 L763.5625,148.7656 L761.0938,148.7656 L761.0938,156.8438 L763.5625,156.8438 L763.5625,159 L756.1719,159 L756.1719,156.8438 L758.6406,156.8438 L758.6406,148.7656 L756.1719,148.7656 Z "/><text fill="#000000" font-family="sans-serif" font-size="12" font-style="italic" lengthAdjust="spacingAndGlyphs" textLength="97" x="780.75" y="157.656">DatabaseProvider</text><line style="stroke: #A80036; stroke-width: 1.5;" x1="614.5" x2="1011.5" y1="169" y2="169"/><line style="stroke: #A80036; stroke-width: 1.5;" x1="614.5" x2="1011.5" y1="177" y2="177"/><ellipse cx="624.5" cy="188" fill="#84BE84" rx="3" ry="3" style="stroke: #038048; stroke-width: 1.0;"/><text fill="#000000" font-family="sans-serif" font-size="11" lengthAdjust="spacingAndGlyphs" textLength="345" x="633.5" y="192.7589">Open: Open (ctx context.Context, names ...string) (*sqlx.DB, error)</text><ellipse cx="624.5" cy="202.9819" fill="#84BE84" rx="3" ry="3" style="stroke: #038048; stroke-width: 1.0;"/><text fill="#000000" font-family="sans-serif" font-size="11" lengthAdjust="spacingAndGlyphs" textLength="373" x="633.5" y="207.7408">Connect: Connect (ctx context.Context, names ...string) (*sqlx.DB, error)</text><!--MD5=[782a8e96be819bf106532df41d80f0d1]
class platform.ErrorResponse--><rect fill="#FEFECE" filter="url(#f7mwngfvjj688)" height="62.9819" id="platform.ErrorResponse" style="stroke: #A80036; stroke-width: 1.5;" width="165" x="413.5" y="144.5"/><ellipse cx="451" cy="160.5" fill="#ADD1B2" rx="11" ry="11" style="stroke: #A80036; stroke-width: 1.0;"/><path d="M453.9688,166.1406 Q453.3906,166.4375 452.75,166.5781 Q452.1094,166.7344 451.4063,166.7344 Q448.9063,166.7344 447.5781,165.0938 Q446.2656,163.4375 446.2656,160.3125 Q446.2656,157.1875 447.5781,155.5313 Q448.9063,153.875 451.4063,153.875 Q452.1094,153.875 452.75,154.0313 Q453.4063,154.1875 453.9688,154.4844 L453.9688,157.2031 Q453.3438,156.625 452.75,156.3594 Q452.1563,156.0781 451.5313,156.0781 Q450.1875,156.0781 449.5,157.1563 Q448.8125,158.2188 448.8125,160.3125 Q448.8125,162.4063 449.5,163.4844 Q450.1875,164.5469 451.5313,164.5469 Q452.1563,164.5469 452.75,164.2813 Q453.3438,164 453.9688,163.4219 L453.9688,166.1406 Z "/><text fill="#000000" font-family="sans-serif" font-size="12" lengthAdjust="spacingAndGlyphs" textLength="83" x="470" y="165.156">ErrorResponse</text><line style="stroke: #A80036; stroke-width: 1.5;" x1="414.5" x2="577.5" y1="176.5" y2="176.5"/><ellipse cx="424.5" cy="187.5" fill="none" rx="3" ry="3" style="stroke: #038048; stroke-width: 1.0;"/><text fill="#000000" font-family="sans-serif" font-size="11" lengthAdjust="spacingAndGlyphs" textLength="139" x="433.5" y="192.2589">Error: ErrorResponseBody</text><line style="stroke: #A80036; stroke-width: 1.5;" x1="414.5" x2="577.5" y1="199.4819" y2="199.4819"/><!--MD5=[5d815c542bfd9967fd2dd1269cefa2b4]
class platform.ErrorResponseBody--><rect fill="#FEFECE" filter="url(#f7mwngfvjj688)" height="77.9638" id="platform.ErrorResponseBody" style="stroke: #A80036; stroke-width: 1.5;" width="143" x="474.5" y="421.5"/><ellipse cx="489.5" cy="437.5" fill="#ADD1B2" rx="11" ry="11" style="stroke: #A80036; stroke-width: 1.0;"/><path d="M492.4688,443.1406 Q491.8906,443.4375 491.25,443.5781 Q490.6094,443.7344 489.9063,443.7344 Q487.4063,443.7344 486.0781,442.0938 Q484.7656,440.4375 484.7656,437.3125 Q484.7656,434.1875 486.0781,432.5313 Q487.4063,430.875 489.9063,430.875 Q490.6094,430.875 491.25,431.0313 Q491.9063,431.1875 492.4688,431.4844 L492.4688,434.2031 Q491.8438,433.625 491.25,433.3594 Q490.6563,433.0781 490.0313,433.0781 Q488.6875,433.0781 488,434.1563 Q487.3125,435.2188 487.3125,437.3125 Q487.3125,439.4063 488,440.4844 Q488.6875,441.5469 490.0313,441.5469 Q490.6563,441.5469 491.25,441.2813 Q491.8438,441 492.4688,440.4219 L492.4688,443.1406 Z "/><text fill="#000000" font-family="sans-serif" font-size="12" lengthAdjust="spacingAndGlyphs" textLength="111" x="503.5" y="442.156">ErrorResponseBody</text><line style="stroke: #A80036; stroke-width: 1.5;" x1="475.5" x2="616.5" y1="453.5" y2="453.5"/><ellipse cx="485.5" cy="464.5" fill="none" rx="3" ry="3" style="stroke: #038048; stroke-width: 1.0;"/><text fill="#000000" font-family="sans-serif" font-size="11" lengthAdjust="spacingAndGlyphs" textLength="47" x="494.5" y="469.2589">Code: int</text><ellipse cx="485.5" cy="479.4819" fill="none" rx="3" ry="3" style="stroke: #038048; stroke-width: 1.0;"/><text fill="#000000" font-family="sans-serif" font-size="11" lengthAdjust="spacingAndGlyphs" textLength="82" x="494.5" y="484.2408">Message: string</text><line style="stroke: #A80036; stroke-width: 1.5;" x1="475.5" x2="616.5" y1="491.4638" y2="491.4638"/><!--MD5=[7af7408ac16c8b6615c78c02e6fc903d]
class platform.Module--><rect fill="#FEFECE" filter="url(#f7mwngfvjj688)" height="107.9276" id="platform.Module" style="stroke: #A80036; stroke-width: 1.5;" width="267" x="38.5" y="406.5"/><ellipse cx="147.75" cy="422.5" fill="#B4A7E5" rx="11" ry="11" style="stroke: #A80036; stroke-width: 1.0;"/><path d="M143.6719,418.2656 L143.6719,416.1094 L151.0625,416.1094 L151.0625,418.2656 L148.5938,418.2656 L148.5938,426.3438 L151.0625,426.3438 L151.0625,428.5 L143.6719,428.5 L143.6719,426.3438 L146.1406,426.3438 L146.1406,418.2656 L143.6719,418.2656 Z "/><text fill="#000000" font-family="sans-serif" font-size="12" font-style="italic" lengthAdjust="spacingAndGlyphs" textLength="40" x="168.25" y="427.156">Module</text><line style="stroke: #A80036; stroke-width: 1.5;" x1="39.5" x2="304.5" y1="438.5" y2="438.5"/><line style="stroke: #A80036; stroke-width: 1.5;" x1="39.5" x2="304.5" y1="446.5" y2="446.5"/><ellipse cx="49.5" cy="457.5" fill="#84BE84" rx="3" ry="3" style="stroke: #038048; stroke-width: 1.0;"/><text fill="#000000" font-family="sans-serif" font-size="11" lengthAdjust="spacingAndGlyphs" textLength="109" x="58.5" y="462.2589">Name: Name () string</text><ellipse cx="49.5" cy="472.4819" fill="#84BE84" rx="3" ry="3" style="stroke: #038048; stroke-width: 1.0;"/><text fill="#000000" font-family="sans-serif" font-size="11" lengthAdjust="spacingAndGlyphs" textLength="179" x="58.5" y="477.2408">Start: Start (context.Context) error</text><ellipse cx="49.5" cy="487.4638" fill="#84BE84" rx="3" ry="3" style="stroke: #038048; stroke-width: 1.0;"/><text fill="#000000" font-family="sans-serif" font-size="11" lengthAdjust="spacingAndGlyphs" textLength="177" x="58.5" y="492.2227">Stop: Stop (context.Context) error</text><ellipse cx="49.5" cy="502.4457" fill="#84BE84" rx="3" ry="3" style="stroke: #038048; stroke-width: 1.0;"/><text fill="#000000" font-family="sans-serif" font-size="11" lengthAdjust="spacingAndGlyphs" textLength="241" x="58.5" y="507.2046">Mount: Mount (context.Context, Router) error</text><!--MD5=[358344282dfc8e3880b236ef018a4b77]
class platform.Options--><rect fill="#FEFECE" filter="url(#f7mwngfvjj688)" height="107.9276" id="platform.Options" style="stroke: #A80036; stroke-width: 1.5;" width="123" x="1047.5" y="122"/><ellipse cx="1084.1" cy="138" fill="#ADD1B2" rx="11" ry="11" style="stroke: #A80036; stroke-width: 1.0;"/><path d="M1087.0688,143.6406 Q1086.4906,143.9375 1085.85,144.0781 Q1085.2094,144.2344 1084.5063,144.2344 Q1082.0063,144.2344 1080.6781,142.5938 Q1079.3656,140.9375 1079.3656,137.8125 Q1079.3656,134.6875 1080.6781,133.0313 Q1082.0063,131.375 1084.5063,131.375 Q1085.2094,131.375 1085.85,131.5313 Q1086.5063,131.6875 1087.0688,131.9844 L1087.0688,134.7031 Q1086.4438,134.125 1085.85,133.8594 Q1085.2563,133.5781 1084.6313,133.5781 Q1083.2875,133.5781 1082.6,134.6563 Q1081.9125,135.7188 1081.9125,137.8125 Q1081.9125,139.9063 1082.6,140.9844 Q1083.2875,142.0469 1084.6313,142.0469 Q1085.2563,142.0469 1085.85,141.7813 Q1086.4438,141.5 1087.0688,140.9219 L1087.0688,143.6406 Z "/><text fill="#000000" font-family="sans-serif" font-size="12" lengthAdjust="spacingAndGlyphs" textLength="43" x="1102.9" y="142.656">Options</text><line style="stroke: #A80036; stroke-width: 1.5;" x1="1048.5" x2="1169.5" y1="154" y2="154"/><ellipse cx="1058.5" cy="165" fill="none" rx="3" ry="3" style="stroke: #038048; stroke-width: 1.0;"/><text fill="#000000" font-family="sans-serif" font-size="11" lengthAdjust="spacingAndGlyphs" textLength="97" x="1067.5" y="169.7589">ServerAddr: string</text><ellipse cx="1058.5" cy="179.9819" fill="none" rx="3" ry="3" style="stroke: #038048; stroke-width: 1.0;"/><text fill="#000000" font-family="sans-serif" font-size="11" lengthAdjust="spacingAndGlyphs" textLength="59" x="1067.5" y="184.7408">Quiet: bool</text><ellipse cx="1058.5" cy="194.9638" fill="none" rx="3" ry="3" style="stroke: #038048; stroke-width: 1.0;"/><text fill="#000000" font-family="sans-serif" font-size="11" lengthAdjust="spacingAndGlyphs" textLength="90" x="1067.5" y="199.7227">Modules: []string</text><ellipse cx="1058.5" cy="209.9457" fill="none" rx="3" ry="3" style="stroke: #038048; stroke-width: 1.0;"/><text fill="#000000" font-family="sans-serif" font-size="11" lengthAdjust="spacingAndGlyphs" textLength="77" x="1067.5" y="214.7046">ThemeFS: fs.FS</text><line style="stroke: #A80036; stroke-width: 1.5;" x1="1048.5" x2="1169.5" y1="221.9276" y2="221.9276"/><!--MD5=[89a2371b9a67e1b5a991d2e2bed80456]
class platform.Platform--><rect fill="#FEFECE" filter="url(#f7mwngfvjj688)" height="182.837" id="platform.Platform" style="stroke: #A80036; stroke-width: 1.5;" width="165" x="705.5" y="369"/><ellipse cx="759.75" cy="385" fill="#B4A7E5" rx="11" ry="11" style="stroke: #A80036; stroke-width: 1.0;"/><path d="M755.6719,380.7656 L755.6719,378.6094 L763.0625,378.6094 L763.0625,380.7656 L760.5938,380.7656 L760.5938,388.8438 L763.0625,388.8438 L763.0625,391 L755.6719,391 L755.6719,388.8438 L758.1406,388.8438 L758.1406,380.7656 L755.6719,380.7656 Z "/><text fill="#000000" font-family="sans-serif" font-size="12" font-style="italic" lengthAdjust="spacingAndGlyphs" textLength="48" x="780.25" y="389.656">Platform</text><line style="stroke: #A80036; stroke-width: 1.5;" x1="706.5" x2="869.5" y1="401" y2="401"/><rect fill="none" height="6" style="stroke: #C82930; stroke-width: 1.0;" width="6" x="713.5" y="409"/><text fill="#000000" font-family="sans-serif" font-size="11" lengthAdjust="spacingAndGlyphs" textLength="94" x="725.5" y="416.7589">options: *Options</text><rect fill="none" height="6" style="stroke: #C82930; stroke-width: 1.0;" width="6" x="713.5" y="423.9819"/><text fill="#000000" font-family="sans-serif" font-size="11" lengthAdjust="spacingAndGlyphs" textLength="87" x="725.5" y="431.7408">router: *chi.Mux</text><rect fill="none" height="6" style="stroke: #C82930; stroke-width: 1.0;" width="6" x="713.5" y="438.9638"/><text fill="#000000" font-family="sans-serif" font-size="11" lengthAdjust="spacingAndGlyphs" textLength="104" x="725.5" y="446.7227">server: *http.Server</text><rect fill="none" height="6" style="stroke: #C82930; stroke-width: 1.0;" width="6" x="713.5" y="453.9457"/><text fill="#000000" font-family="sans-serif" font-size="11" lengthAdjust="spacingAndGlyphs" textLength="107" x="725.5" y="461.7046">listener: net.Listener</text><rect fill="none" height="6" style="stroke: #C82930; stroke-width: 1.0;" width="6" x="713.5" y="468.9276"/><text fill="#000000" font-family="sans-serif" font-size="11" lengthAdjust="spacingAndGlyphs" textLength="128" x="725.5" y="476.6865">context: context.Context</text><rect fill="none" height="6" style="stroke: #C82930; stroke-width: 1.0;" width="6" x="713.5" y="483.9094"/><text fill="#000000" font-family="sans-serif" font-size="11" lengthAdjust="spacingAndGlyphs" textLength="139" x="725.5" y="491.6684">cancel: context.CancelFunc</text><rect fill="none" height="6" style="stroke: #C82930; stroke-width: 1.0;" width="6" x="713.5" y="498.8913"/><text fill="#000000" font-family="sans-serif" font-size="11" lengthAdjust="spacingAndGlyphs" textLength="84" x="725.5" y="506.6502">once: sync.Once</text><rect fill="none" height="6" style="stroke: #C82930; stroke-width: 1.0;" width="6" x="713.5" y="513.8732"/><text fill="#000000" font-family="sans-serif" font-size="11" lengthAdjust="spacingAndGlyphs" textLength="96" x="725.5" y="521.6321">registry: *Registry</text><line style="stroke: #A80036; stroke-width: 1.5;" x1="706.5" x2="869.5" y1="528.8551" y2="528.8551"/><rect fill="#F24D5C" height="6" style="stroke: #C82930; stroke-width: 1.0;" width="6" x="713.5" y="536.8551"/><text fill="#000000" font-family="sans-serif" font-size="11" lengthAdjust="spacingAndGlyphs" textLength="58" x="725.5" y="544.614">stop: func()</text><!--MD5=[4a6a894fdff7f4e5dbd894e3f89ef842]
class platform.Registry--><rect fill="#FEFECE" filter="url(#f7mwngfvjj688)" height="227.7827" id="platform.Registry" style="stroke: #A80036; stroke-width: 1.5;" width="340" x="38" y="62"/><ellipse cx="181.25" cy="78" fill="#ADD1B2" rx="11" ry="11" style="stroke: #A80036; stroke-width: 1.0;"/><path d="M184.2188,83.6406 Q183.6406,83.9375 183,84.0781 Q182.3594,84.2344 181.6563,84.2344 Q179.1563,84.2344 177.8281,82.5938 Q176.5156,80.9375 176.5156,77.8125 Q176.5156,74.6875 177.8281,73.0313 Q179.1563,71.375 181.6563,71.375 Q182.3594,71.375 183,71.5313 Q183.6563,71.6875 184.2188,71.9844 L184.2188,74.7031 Q183.5938,74.125 183,73.8594 Q182.4063,73.5781 181.7813,73.5781 Q180.4375,73.5781 179.75,74.6563 Q179.0625,75.7188 179.0625,77.8125 Q179.0625,79.9063 179.75,80.9844 Q180.4375,82.0469 181.7813,82.0469 Q182.4063,82.0469 183,81.7813 Q183.5938,81.5 184.2188,80.9219 L184.2188,83.6406 Z "/><text fill="#000000" font-family="sans-serif" font-size="12" lengthAdjust="spacingAndGlyphs" textLength="45" x="201.75" y="82.656">Registry</text><line style="stroke: #A80036; stroke-width: 1.5;" x1="39" x2="377" y1="94" y2="94"/><rect fill="none" height="6" style="stroke: #C82930; stroke-width: 1.0;" width="6" x="46" y="102"/><text fill="#000000" font-family="sans-serif" font-size="11" lengthAdjust="spacingAndGlyphs" textLength="99" x="58" y="109.7589">mu: sync.RWMutex</text><rect fill="none" height="6" style="stroke: #C82930; stroke-width: 1.0;" width="6" x="46" y="116.9819"/><text fill="#000000" font-family="sans-serif" font-size="11" lengthAdjust="spacingAndGlyphs" textLength="99" x="58" y="124.7408">modules: []Module</text><rect fill="none" height="6" style="stroke: #C82930; stroke-width: 1.0;" width="6" x="46" y="131.9638"/><text fill="#000000" font-family="sans-serif" font-size="11" lengthAdjust="spacingAndGlyphs" textLength="138" x="58" y="139.7227">middleware: []Middleware</text><line style="stroke: #A80036; stroke-width: 1.5;" x1="39" x2="377" y1="146.9457" y2="146.9457"/><rect fill="#F24D5C" height="6" style="stroke: #C82930; stroke-width: 1.0;" width="6" x="46" y="154.9457"/><text fill="#000000" font-family="sans-serif" font-size="11" lengthAdjust="spacingAndGlyphs" textLength="172" x="58" y="162.7046">cleanups: []func(context.Context)</text><ellipse cx="49" cy="172.9276" fill="#84BE84" rx="3" ry="3" style="stroke: #038048; stroke-width: 1.0;"/><text fill="#000000" font-family="sans-serif" font-size="11" lengthAdjust="spacingAndGlyphs" textLength="178" x="58" y="177.6865">Cleanup (fn func(context.Context))</text><ellipse cx="49" cy="187.9094" fill="#84BE84" rx="3" ry="3" style="stroke: #038048; stroke-width: 1.0;"/><text fill="#000000" font-family="sans-serif" font-size="11" lengthAdjust="spacingAndGlyphs" textLength="91" x="58" y="192.6684">Clone () *Registry</text><ellipse cx="49" cy="202.8913" fill="#84BE84" rx="3" ry="3" style="stroke: #038048; stroke-width: 1.0;"/><text fill="#000000" font-family="sans-serif" font-size="11" lengthAdjust="spacingAndGlyphs" textLength="138" x="58" y="207.6502">Close (ctx context.Context)</text><ellipse cx="49" cy="217.8732" fill="#84BE84" rx="3" ry="3" style="stroke: #038048; stroke-width: 1.0;"/><text fill="#000000" font-family="sans-serif" font-size="11" lengthAdjust="spacingAndGlyphs" textLength="113" x="58" y="222.6321">Find (target any) bool</text><ellipse cx="49" cy="232.8551" fill="#84BE84" rx="3" ry="3" style="stroke: #038048; stroke-width: 1.0;"/><text fill="#000000" font-family="sans-serif" font-size="11" lengthAdjust="spacingAndGlyphs" textLength="105" x="58" y="237.614">Register (m Module)</text><ellipse cx="49" cy="247.837" fill="#84BE84" rx="3" ry="3" style="stroke: #038048; stroke-width: 1.0;"/><text fill="#000000" font-family="sans-serif" font-size="11" lengthAdjust="spacingAndGlyphs" textLength="314" x="58" y="252.5959">Start (ctx context.Context, mux Router, opts *Options) error</text><ellipse cx="49" cy="262.8189" fill="#84BE84" rx="3" ry="3" style="stroke: #038048; stroke-width: 1.0;"/><text fill="#000000" font-family="sans-serif" font-size="11" lengthAdjust="spacingAndGlyphs" textLength="51" x="58" y="267.5778">Stats () int</text><ellipse cx="49" cy="277.8008" fill="#84BE84" rx="3" ry="3" style="stroke: #038048; stroke-width: 1.0;"/><text fill="#000000" font-family="sans-serif" font-size="11" lengthAdjust="spacingAndGlyphs" textLength="97" x="58" y="282.5597">Use (f Middleware)</text><!--MD5=[add30b93225d231acb95dc49d76c1811]
class platform.UnimplementedModule--><rect fill="#FEFECE" filter="url(#f7mwngfvjj688)" height="107.9276" id="platform.UnimplementedModule" style="stroke: #A80036; stroke-width: 1.5;" width="265" x="905.5" y="406.5"/><ellipse cx="970.75" cy="422.5" fill="#B4A7E5" rx="11" ry="11" style="stroke: #A80036; stroke-width: 1.0;"/><path d="M966.6719,418.2656 L966.6719,416.1094 L974.0625,416.1094 L974.0625,418.2656 L971.5938,418.2656 L971.5938,426.3438 L974.0625,426.3438 L974.0625,428.5 L966.6719,428.5 L966.6719,426.3438 L969.1406,426.3438 L969.1406,418.2656 L966.6719,418.2656 Z "/><text fill="#000000" font-family="sans-serif" font-size="12" font-style="italic" lengthAdjust="spacingAndGlyphs" textLength="126" x="991.25" y="427.156">UnimplementedModule</text><line style="stroke: #A80036; stroke-width: 1.5;" x1="906.5" x2="1169.5" y1="438.5" y2="438.5"/><line style="stroke: #A80036; stroke-width: 1.5;" x1="906.5" x2="1169.5" y1="446.5" y2="446.5"/><ellipse cx="916.5" cy="457.5" fill="#84BE84" rx="3" ry="3" style="stroke: #038048; stroke-width: 1.0;"/><text fill="#000000" font-family="sans-serif" font-size="11" lengthAdjust="spacingAndGlyphs" textLength="112" x="925.5" y="462.2589">NameFn: func() string</text><ellipse cx="916.5" cy="472.4819" fill="#84BE84" rx="3" ry="3" style="stroke: #038048; stroke-width: 1.0;"/><text fill="#000000" font-family="sans-serif" font-size="11" lengthAdjust="spacingAndGlyphs" textLength="187" x="925.5" y="477.2408">StartFn: func(context.Context) error</text><ellipse cx="916.5" cy="487.4638" fill="#84BE84" rx="3" ry="3" style="stroke: #038048; stroke-width: 1.0;"/><text fill="#000000" font-family="sans-serif" font-size="11" lengthAdjust="spacingAndGlyphs" textLength="186" x="925.5" y="492.2227">StopFn: func(context.Context) error</text><ellipse cx="916.5" cy="502.4457" fill="#84BE84" rx="3" ry="3" style="stroke: #038048; stroke-width: 1.0;"/><text fill="#000000" font-family="sans-serif" font-size="11" lengthAdjust="spacingAndGlyphs" textLength="239" x="925.5" y="507.2046">MountFn: func(context.Context, Router) error</text><!--MD5=[1627f773094eccd22977139fff0e2d35]
class platform.Middleware--><rect fill="#FEFECE" filter="url(#f7mwngfvjj688)" height="48" id="platform.Middleware" style="stroke: #A80036; stroke-width: 1.5;" width="98" x="341" y="436.5"/><ellipse cx="356" cy="452.5" fill="#ADD1B2" rx="11" ry="11" style="stroke: #A80036; stroke-width: 1.0;"/><path d="M358.9688,458.1406 Q358.3906,458.4375 357.75,458.5781 Q357.1094,458.7344 356.4063,458.7344 Q353.9063,458.7344 352.5781,457.0938 Q351.2656,455.4375 351.2656,452.3125 Q351.2656,449.1875 352.5781,447.5313 Q353.9063,445.875 356.4063,445.875 Q357.1094,445.875 357.75,446.0313 Q358.4063,446.1875 358.9688,446.4844 L358.9688,449.2031 Q358.3438,448.625 357.75,448.3594 Q357.1563,448.0781 356.5313,448.0781 Q355.1875,448.0781 354.5,449.1563 Q353.8125,450.2188 353.8125,452.3125 Q353.8125,454.4063 354.5,455.4844 Q355.1875,456.5469 356.5313,456.5469 Q357.1563,456.5469 357.75,456.2813 Q358.3438,456 358.9688,455.4219 L358.9688,458.1406 Z "/><text fill="#000000" font-family="sans-serif" font-size="12" lengthAdjust="spacingAndGlyphs" textLength="66" x="370" y="457.156">Middleware</text><line style="stroke: #A80036; stroke-width: 1.5;" x1="342" x2="438" y1="468.5" y2="468.5"/><line style="stroke: #A80036; stroke-width: 1.5;" x1="342" x2="438" y1="476.5" y2="476.5"/><!--MD5=[2ebeda91e2a6c17c7893f4f2c4d9c560]
link pkg.httpcontext.Value[T any] to pkg.httpcontext.any--><path d="M1755,207.5 C1755,262.54 1755,377.69 1755,431.13 " fill="none" id="pkg.httpcontext.Value[T any]-&gt;pkg.httpcontext.any" style="stroke: #A80036; stroke-width: 1.0;"/><polygon fill="#A80036" points="1755,436.41,1759,427.41,1755,431.41,1751,427.41,1755,436.41" style="stroke: #A80036; stroke-width: 1.0;"/><text fill="#000000" font-family="sans-serif" font-size="13" lengthAdjust="spacingAndGlyphs" textLength="25" x="1756" y="334.897">.Key</text><!--MD5=[18c80c55e6b8c6dbadea28db3d2382e9]
link platform.ErrorResponse to platform.ErrorResponseBody--><path d="M501.4,207.5 C510.3,257.77 528.07,358.21 538.29,415.95 " fill="none" id="platform.ErrorResponse-&gt;platform.ErrorResponseBody" style="stroke: #A80036; stroke-width: 1.0;"/><polygon fill="#A80036" points="539.2,421.05,541.5719,411.491,538.3294,416.1264,533.6941,412.8839,539.2,421.05" style="stroke: #A80036; stroke-width: 1.0;"/><text fill="#000000" font-family="sans-serif" font-size="13" lengthAdjust="spacingAndGlyphs" textLength="33" x="525" y="334.897">.Error</text><!--MD5=[e3b860f28c5afe3bc1f819c62c72f835]
link platform.Registry to platform.Module--><path d="M193.56,290.28 C188.72,328.31 183.51,369.15 179.43,401.19 " fill="none" id="platform.Registry-&gt;platform.Module" style="stroke: #A80036; stroke-width: 1.0;"/><polygon fill="#A80036" points="178.79,406.25,183.8904,397.8247,179.419,401.2897,175.9539,396.8183,178.79,406.25" style="stroke: #A80036; stroke-width: 1.0;"/><text fill="#000000" font-family="sans-serif" font-size="13" lengthAdjust="spacingAndGlyphs" textLength="55" x="190" y="334.897">.modules</text><!--MD5=[b9c6f07f2496d5ded784642acf3d07dc]
link platform.Registry to platform.Middleware--><path d="M280.98,290.28 C314.39,342.13 351.17,399.23 372.33,432.08 " fill="none" id="platform.Registry-&gt;platform.Middleware" style="stroke: #A80036; stroke-width: 1.0;"/><polygon fill="#A80036" points="375.09,436.35,373.5645,426.62,372.3761,432.1506,366.8455,430.9622,375.09,436.35" style="stroke: #A80036; stroke-width: 1.0;"/><text fill="#000000" font-family="sans-serif" font-size="13" lengthAdjust="spacingAndGlyphs" textLength="73" x="311" y="334.897">.middleware</text><!--MD5=[4dc0a7eadcf9e4d23ec2ea4c41b2507a]
link platform.DatabaseProvider to platform.Options--><!--MD5=[a466afad2bd233cde7a55ae5022a57e5]
link platform.DatabaseProvider to platform.Platform--><!--MD5=[39b6e8bea10d154c0ab3da87eb8cda4e]
link platform.Platform to platform.UnimplementedModule--><!--MD5=[8beec4798dd49a0f8aaf6f2d175a93fc]
@startuml

class "internal.DatabaseOption" {
  + MaxOpenConns: int
  + MaxIdleConns: int
  + Apply (client *sqlx.DB)
}

interface "internal.DatabaseProvider" {
  - open: func(string, string) (*sqlx.DB, error)
  - mu: sync.Mutex
  - cache: map[string]*sqlx.DB
  - credentials: map[string]string
}

class "pkg.httpcontext.Value[T any]" {
  + Key: any
}

class "pkg.telemetry.Monitor" {
  - mu: sync.Mutex
  - enabled: bool
  - state: map[string]*expvar.Int
  + Enabled () bool
  + SetEnabled (enabled bool)
  + Touch (name string)
}

interface "platform.DatabaseProvider" {
  + Open: Open (ctx context.Context, names ...string) (*sqlx.DB, error)
  + Connect: Connect (ctx context.Context, names ...string) (*sqlx.DB, error)
}

class "platform.ErrorResponse" {
  + Error: ErrorResponseBody
}

class "platform.ErrorResponseBody" {
  + Code: int
  + Message: string
}

interface "platform.Module" {
  + Name: Name () string
  + Start: Start (context.Context) error
  + Stop: Stop (context.Context) error
  + Mount: Mount (context.Context, Router) error
}

class "platform.Options" {
  + ServerAddr: string
  + Quiet: bool
  + Modules: []string
  + ThemeFS: fs.FS
}

interface "platform.Platform" {
  - options: *Options
  - router: *chi.Mux
  - server: *http.Server
  - listener: net.Listener
  - context: context.Context
  - cancel: context.CancelFunc
  - stop: func()
  - once: sync.Once
  - registry: *Registry
}

class "platform.Registry" {
  - mu: sync.RWMutex
  - modules: []Module
  - middleware: []Middleware
  - cleanups: []func(context.Context)
  + Cleanup (fn func(context.Context))
  + Clone () *Registry
  + Close (ctx context.Context)
  + Find (target any) bool
  + Register (m Module)
  + Start (ctx context.Context, mux Router, opts *Options) error
  + Stats () int
  + Use (f Middleware)
}

interface "platform.UnimplementedModule" {
  + NameFn: func() string
  + StartFn: func(context.Context) error
  + StopFn: func(context.Context) error
  + MountFn: func(context.Context, Router) error
}



"pkg.httpcontext.Value[T any]" - -> "pkg.httpcontext.any" : .Key



"platform.ErrorResponse" - -> "platform.ErrorResponseBody" : .Error





"platform.Registry" - -> "platform.Module" : .modules
"platform.Registry" - -> "platform.Middleware" : .middleware



@enduml

PlantUML version 1.2020.02(Sun Mar 01 11:22:07 CET 2020)
(GPL source distribution)
Java Runtime: OpenJDK Runtime Environment
JVM: OpenJDK 64-Bit Server VM
Java Version: 21.0.10+7-Ubuntu-125.10
Operating System: Linux
Default Encoding: UTF-8
Language: en
Country: US
--></g></svg>