<?xml version="1.0" encoding="UTF-8" standalone="no"?><svg xmlns="http://www.w3.org/2000/svg" xmlns:xlink="http://www.w3.org/1999/xlink" contentScriptType="application/ecmascript" contentStyleType="text/css" height="475px" preserveAspectRatio="none" style="width:2280px;height:475px;" version="1.1" viewBox="0 0 2280 475" width="2280px" zoomAndPan="magnify"><defs><filter height="300%" id="f6sjiohdksd1" width="300%" x="-1" y="-1"><feGaussianBlur result="blurOut" stdDeviation="2.0"/><feColorMatrix in="blurOut" result="blurOut2" type="matrix" values="0 0 0 0 0 0 0 0 0 0 0 0 0 0 0 0 0 0 .4 0"/><feOffset dx="4.0" dy="4.0" in="blurOut2" result="blurOut3"/><feBlend in="SourceGraphic" in2="blurOut3" mode="normal"/></filter></defs><g><!--MD5=[c27d767109b3913d4718b358a17ad24a]
cluster internal--><polygon fill="#FFFFFF" filter="url(#f6sjiohdksd1)" points="1411,69,1471,69,1478,94.0679,1864,94.0679,1864,231,1411,231,1411,69" style="stroke: #000000; stroke-width: 1.5;"/><line style="stroke: #000000; stroke-width: 1.5;" x1="1411" x2="1478" y1="94.0679" y2="94.0679"/><text fill="#000000" font-family="sans-serif" font-size="14" font-weight="bold" lengthAdjust="spacingAndGlyphs" textLength="54" x="1415" y="85.9659">internal</text><!--MD5=[66de46875e9ca6c2e5f1890fb81f9fe4]
cluster pkg.httpcontext--><polygon fill="#FFFFFF" filter="url(#f6sjiohdksd1)" points="1888,91.5,2008,91.5,2015,116.5679,2022,116.5679,2022,433,1888,433,1888,91.5" style="stroke: #000000; stroke-width: 1.5;"/><line style="stroke: #000000; stroke-width: 1.5;" x1="1888" x2="2015" y1="116.5679" y2="116.5679"/><text fill="#000000" font-family="sans-serif" font-size="14" font-weight="bold" lengthAdjust="spacingAndGlyphs" textLength="114" x="1892" y="108.4659">pkg.httpcontext</text><!--MD5=[d90c695c32d4e95bb9451c21e63b0bfd]
cluster pkg.telemetry--><polygon fill="#FFFFFF" filter="url(#f6sjiohdksd1)" points="2046,54,2151,54,2158,79.0679,2258,79.0679,2258,246,2046,246,2046,54" style="stroke: #000000; stroke-width: 1.5;"/><line style="stroke: #000000; stroke-width: 1.5;" x1="2046" x2="2158" y1="79.0679" y2="79.0679"/><text fill="#000000" font-family="sans-serif" font-size="14" font-weight="bold" lengthAdjust="spacingAndGlyphs" textLength="99" x="2050" y="70.9659">pkg.telemetry</text><!--MD5=[d841c4c2f84d4e18d352f800547f43fc]
cluster platform--><polygon fill="#FFFFFF" filter="url(#f6sjiohdksd1)" points="22,24,89,24,96,49.0679,1387,49.0679,1387,463,22,463,22,24" style="stroke: #000000; stroke-width: 1.5;"/><line style="stroke: #000000; stroke-width: 1.5;" x1="22" x2="96" y1="49.0679" y2="49.0679"/><text fill="#000000" font-family="sans-serif" font-size="14" font-weight="bold" lengthAdjust="spacingAndGlyphs" textLength="61" x="26" y="40.9659">platform</text><!--MD5=[98c17e746b1aec6ba8c0d376f06b2a22]
class internal.DatabaseOption--><rect fill="#FEFECE" filter="url(#f6sjiohdksd1)" height="92.9457" id="internal.DatabaseOption" style="stroke: #A80036; stroke-width: 1.5;" width="141" x="1706.5" y="114.5"/><ellipse cx="1729.6" cy="130.5" fill="#ADD1B2" rx="11" ry="11" style="stroke: #A80036; stroke-width: 1.0;"/><path d="M1732.5688,136.1406 Q1731.9906,136.4375 1731.35,136.5781 Q1730.7094,136.7344 1730.0063,136.7344 Q1727.5063,136.7344 1726.1781,135.0938 Q1724.8656,133.4375 1724.8656,130.3125 Q1724.8656,127.1875 1726.1781,125.5313 Q1727.5063,123.875 1730.0063,123.875 Q1730.7094,123.875 1731.35,124.0313 Q1732.0063,124.1875 1732.5688,124.4844 L1732.5688,127.2031 Q1731.9438,126.625 1731.35,126.3594 Q1730.7563,126.0781 1730.1313,126.0781 Q1728.7875,126.0781 1728.1,127.1563 Q1727.4125,128.2188 1727.4125,130.3125 Q1727.4125,132.4063 1728.1,133.4844 Q1728.7875,134.5469 1730.1313,134.5469 Q1730.7563,134.5469 1731.35,134.2813 Q1731.9438,134 1732.5688,133.4219 L1732.5688,136.1406 Z "/><text fill="#000000" font-family="sans-serif" font-size="12" lengthAdjust="spacingAndGlyphs" textLength="91" x="1745.4" y="135.156">DatabaseOption</text><line style="stroke: #A80036; stroke-width: 1.5;" x1="1707.5" x2="1846.5" y1="146.5" y2="146.5"/><ellipse cx="1717.5" cy="157.5" fill="none" rx="3" ry="3" style="stroke: #038048; stroke-width: 1.0;"/><text fill="#000000" font-family="sans-serif" font-size="11" lengthAdjust="spacingAndGlyphs" textLength="104" x="1726.5" y="162.2589">MaxOpenConns: int</text><ellipse cx="1717.5" cy="172.4819" fill="none" rx="3" ry="3" style="stroke: #038048; stroke-width: 1.0;"/><text fill="#000000" font-family="sans-serif" font-size="11" lengthAdjust="spacingAndGlyphs" textLength="95" x="1726.5" y="177.2408">MaxIdleConns: int</text><line style="stroke: #A80036; stroke-width: 1.5;" x1="1707.5" x2="1846.5" y1="184.4638" y2="184.4638"/><ellipse cx="1717.5" cy="195.4638" fill="#84BE84" rx="3" ry="3" style="stroke: #038048; stroke-width: 1.0;"/><text fill="#000000" font-family="sans-serif" font-size="11" lengthAdjust="spacingAndGlyphs" textLength="115" x="1726.5" y="200.2227">Apply (client *sqlx.DB)</text><!--MD5=[81606ba0f826459e1b602f9ff0101a6f]
class internal.DatabaseProvider--><rect fill="#FEFECE" filter="url(#f6sjiohdksd1)" height="107.9276" id="internal.DatabaseProvider" style="stroke: #A80036; stroke-width: 1.5;" width="244" x="1427" y="107"/><ellipse cx="1496.25" cy="123" fill="#B4A7E5" rx="11" ry="11" style="stroke: #A80036; stroke-width: 1.0;"/><path d="M1492.1719,118.7656 L1492.1719,116.6094 L1499.5625,116.6094 L1499.5625,118.7656 L1497.0938,118.7656 L1497.0938,126.8438 L1499.5625,126.8438 L1499.5625,129 L1492.1719,129 L1492.1719,126.8438 L1494.6406,126.8438 L1494.6406,118.7656 L1492.1719,118.7656 Z "/><text fill="#000000" font-family="sans-serif" font-size="12" font-style="italic" lengthAdjust="spacingAndGlyphs" textLength="97" x="1516.75" y="127.656">DatabaseProvider</text><line style="stroke: #A80036; stroke-width: 1.5;" x1="1428" x2="1670" y1="139" y2="139"/><rect fill="none" height="6" style="stroke: #C82930; stroke-width: 1.0;" width="6" x="1435" y="147"/><text fill="#000000" font-family="sans-serif" font-size="11" lengthAdjust="spacingAndGlyphs" textLength="82" x="1447" y="154.7589">mu: sync.Mutex</text><rect fill="none" height="6" style="stroke: #C82930; stroke-width: 1.0;" width="6" x="1435" y="161.9819"/><text fill="#000000" font-family="sans-serif" font-size="11" lengthAdjust="spacingAndGlyphs" textLength="142" x="1447" y="169.7408">cache: map[string]*sqlx.DB</text><rect fill="none" height="6" style="stroke: #C82930; stroke-width: 1.0;" width="6" x="1435" y="176.9638"/><text fill="#000000" font-family="sans-serif" font-size="11" lengthAdjust="spacingAndGlyphs" textLength="156" x="1447" y="184.7227">credentials: map[string]string</text><line style="stroke: #A80036; stroke-width: 1.5;" x1="1428" x2="1670" y1="191.9457" y2="191.9457"/><rect fill="#F24D5C" height="6" style="stroke: #C82930; stroke-width: 1.0;" width="6" x="1435" y="199.9457"/><text fill="#000000" font-family="sans-serif" font-size="11" lengthAdjust="spacingAndGlyphs" textLength="218" x="1447" y="207.7046">open: func(string, string) (*sqlx.DB, error)</text><!--MD5=[de03c539a5891f1233edfc307f400ecf]
class pkg.httpcontext.Value[T any]--><rect fill="#FEFECE" filter="url(#f6sjiohdksd1)" height="62.9819" id="pkg.httpcontext.Value[T any]" style="stroke: #A80036; stroke-width: 1.5;" width="101" x="1904.5" y="129.5"/><ellipse cx="1919.5" cy="145.5" fill="#ADD1B2" rx="11" ry="11" style="stroke: #A80036; stroke-width: 1.0;"/><path d="M1922.4688,151.1406 Q1921.8906,151.4375 1921.25,151.5781 Q1920.6094,151.7344 1919.9063,151.7344 Q1917.4063,151.7344 1916.0781,150.0938 Q1914.7656,148.4375 1914.7656,145.3125 Q1914.7656,142.1875 1916.0781,140.5313 Q1917.4063,138.875 1919.9063,138.875 Q1920.6094,138.875 1921.25,139.0313 Q1921.9063,139.1875 1922.4688,139.4844 L1922.4688,142.2031 Q1921.8438,141.625 1921.25,141.3594 Q1920.6563,141.0781 1920.0313,141.0781 Q1918.6875,141.0781 1918,142.1563 Q1917.3125,143.2188 1917.3125,145.3125 Q1917.3125,147.4063 1918,148.4844 Q1918.6875,149.5469 1920.0313,149.5469 Q1920.6563,149.5469 1921.25,149.2813 Q1921.8438,149 1922.4688,148.4219 L1922.4688,151.1406 Z "/><text fill="#000000" font-family="sans-serif" font-size="12" lengthAdjust="spacingAndGlyphs" textLength="69" x="1933.5" y="150.156">Value[T any]</text><line style="stroke: #A80036; stroke-width: 1.5;" x1="1905.5" x2="2004.5" y1="161.5" y2="161.5"/><ellipse cx="1915.5" cy="172.5" fill="none" rx="3" ry="3" style="stroke: #038048; stroke-width: 1.0;"/><text fill="#000000" font-family="sans-serif" font-size="11" lengthAdjust="spacingAndGlyphs" textLength="44" x="1924.5" y="177.2589">Key: any</text><line style="stroke: #A80036; stroke-width: 1.5;" x1="1905.5" x2="2004.5" y1="184.4819" y2="184.4819"/><!--MD5=[94413c9a958ede3aa383f4bf6cbf7c55]
class pkg.httpcontext.any--><rect fill="#FEFECE" filter="url(#f6sjiohdksd1)" height="48" id="pkg.httpcontext.any" style="stroke: #A80036; stroke-width: 1.5;" width="52" x="1929" y="369"/><ellipse cx="1944" cy="385" fill="#ADD1B2" rx="11" ry="11" style="stroke: #A80036; stroke-width: 1.0;"/><path d="M1946.9688,390.6406 Q1946.3906,390.9375 1945.75,391.0781 Q1945.1094,391.2344 1944.4063,391.2344 Q1941.9063,391.2344 1940.5781,389.5938 Q1939.2656,387.9375 1939.2656,384.8125 Q1939.2656,381.6875 1940.5781,380.0313 Q1941.9063,378.375 1944.4063,378.375 Q1945.1094,378.375 1945.75,378.5313 Q1946.4063,378.6875 1946.9688,378.9844 L1946.9688,381.7031 Q1946.3438,381.125 1945.75,380.8594 Q1945.1563,380.5781 1944.5313,380.5781 Q1943.1875,380.5781 1942.5,381.6563 Q1941.8125,382.7188 1941.8125,384.8125 Q1941.8125,386.9063 1942.5,387.9844 Q1943.1875,389.0469 1944.5313,389.0469 Q1945.1563,389.0469 1945.75,388.7813 Q1946.3438,388.5 1946.9688,387.9219 L1946.9688,390.6406 Z "/><text fill="#000000" font-family="sans-serif" font-size="12" lengthAdjust="spacingAndGlyphs" textLength="20" x="1958" y="389.656">any</text><line style="stroke: #A80036; stroke-width: 1.5;" x1="1930" x2="1980" y1="401" y2="401"/><line style="stroke: #A80036; stroke-width: 1.5;" x1="1930" x2="1980" y1="409" y2="409"/><!--MD5=[9f7baa3bd5ce22608ae8a8de3db087f1]
class pkg.telemetry.Monitor--><rect fill="#FEFECE" filter="url(#f6sjiohdksd1)" height="137.8913" id="pkg.telemetry.Monitor" style="stroke: #A80036; stroke-width: 1.5;" width="179" x="2062.5" y="92"/><ellipse cx="2125.75" cy="108" fill="#ADD1B2" rx="11" ry="11" style="stroke: #A80036; stroke-width: 1.0;"/><path d="M2128.7188,113.6406 Q2128.1406,113.9375 2127.5,114.0781 Q2126.8594,114.2344 2126.1563,114.2344 Q2123.6563,114.2344 2122.3281,112.5938 Q2121.0156,110.9375 2121.0156,107.8125 Q2121.0156,104.6875 2122.3281,103.0313 Q2123.6563,101.375 2126.1563,101.375 Q2126.8594,101.375 2127.5,101.5313 Q2128.1563,101.6875 2128.7188,101.9844 L2128.7188,104.7031 Q2128.0938,104.125 2127.5,103.8594 Q2126.9063,103.5781 2126.2813,103.5781 Q2124.9375,103.5781 2124.25,104.6563 Q2123.5625,105.7188 2123.5625,107.8125 Q2123.5625,109.9063 2124.25,110.9844 Q2124.9375,112.0469 2126.2813,112.0469 Q2126.9063,112.0469 2127.5,111.7813 Q2128.0938,111.5 2128.7188,110.9219 L2128.7188,113.6406 Z "/><text fill="#000000" font-family="sans-serif" font-size="12" lengthAdjust="spacingAndGlyphs" textLength="44" x="2146.25" y="112.656">Monitor</text><line style="stroke: #A80036; stroke-width: 1.5;" x1="2063.5" x2="2240.5" y1="124" y2="124"/><rect fill="none" height="6" style="stroke: #C82930; stroke-width: 1.0;" width="6" x="2070.5" y="132"/><text fill="#000000" font-family="sans-serif" font-size="11" lengthAdjust="spacingAndGlyphs" textLength="82" x="2082.5" y="139.7589">mu: sync.Mutex</text><rect fill="none" height="6" style="stroke: #C82930; stroke-width: 1.0;" width="6" x="2070.5" y="146.9819"/><text fill="#000000" font-family="sans-serif" font-size="11" lengthAdjust="spacingAndGlyphs" textLength="72" x="2082.5" y="154.7408">enabled: bool</text><rect fill="none" height="6" style="stroke: #C82930; stroke-width: 1.0;" width="6" x="2070.5" y="161.9638"/><text fill="#000000" font-family="sans-serif" font-size="11" lengthAdjust="spacingAndGlyphs" textLength="153" x="2082.5" y="169.7227">state: map[string]*expvar.Int</text><line style="stroke: #A80036; stroke-width: 1.5;" x1="2063.5" x2="2240.5" y1="176.9457" y2="176.9457"/><ellipse cx="2073.5" cy="187.9457" fill="#84BE84" rx="3" ry="3" style="stroke: #038048; stroke-width: 1.0;"/><text fill="#000000" font-family="sans-serif" font-size="11" lengthAdjust="spacingAndGlyphs" textLength="78" x="2082.5" y="192.7046">Enabled () bool</text><ellipse cx="2073.5" cy="202.9276" fill="#84BE84" rx="3" ry="3" style="stroke: #038048; stroke-width: 1.0;"/><text fill="#000000" font-family="sans-serif" font-size="11" lengthAdjust="spacingAndGlyphs" textLength="136" x="2082.5" y="207.6865">SetEnabled (enabled bool)</text><ellipse cx="2073.5" cy="217.9094" fill="#84BE84" rx="3" ry="3" style="stroke: #038048; stroke-width: 1.0;"/><text fill="#000000" font-family="sans-serif" font-size="11" lengthAdjust="spacingAndGlyphs" textLength="104" x="2082.5" y="222.6684">Touch (name string)</text><!--MD5=[7de3ec76c7fd8a33a0ea4e6eeda76880]
class platform.DatabaseProvider--><rect fill="#FEFECE" filter="url(#f6sjiohdksd1)" height="77.9638" id="platform.DatabaseProvider" style="stroke: #A80036; stroke-width: 1.5;" width="399" x="613.5" y="122"/><ellipse cx="760.25" cy="138" fill="#B4A7E5" rx="11" ry="11" style="stroke: #A80036; stroke-width: 1.0;"/><path d="M756.1719,133.7656 L756.1719,131.6094 L763.5625,131.6094 L763.5625,133.7656 L761.0938,133.7656 L761.0938,141.8438 L763.5625,141.8438 L763.5625,144 L756.1719,144 L756.1719,141.8438 L758.6406,141.8438 L758.6406,133.7656 L756.1719,133.7656 Z "/><text fill="#000000" font-family="sans-serif" font-size="12" font-style="italic" lengthAdjust="spacingAndGlyphs" textLength="97" x="780.75" y="142.656">DatabaseProvider</text><line style="stroke: #A80036; stroke-width: 1.5;" x1="614.5" x2="1011.5" y1="154" y2="154"/><line style="stroke: #A80036; stroke-width: 1.5;" x1="614.5" x2="1011.5" y1="162" y2="162"/><ellipse cx="624.5" cy="173" fill="#84BE84" rx="3" ry="3" style="stroke: #038048; stroke-width: 1.0;"/><text fill="#000000" font-family="sans-serif" font-size="11" lengthAdjust="spacingAndGlyphs" textLength="345" x="633.5" y="177.7589">Open: Open (ctx context.Context, names ...string) (*sqlx.DB, error)</text><ellipse cx="624.5" cy="187.9819" fill="#84BE84" rx="3" ry="3" style="stroke: #038048; stroke-width: 1.0;"/><text fill="#000000" font-family="sans-serif" font-size="11" lengthAdjust="spacingAndGlyphs" textLength="373" x="633.5" y="192.7408">Connect: Connect (ctx context.Context, names ...string) (*sqlx.DB, error)</text><!--MD5=[782a8e96be819bf106532df41d80f0d1]
class platform.ErrorResponse--><rect fill="#FEFECE" filter="url(#f6sjiohdksd1)" height="62.9819" id="platform.ErrorResponse" style="stroke: #A80036; stroke-width: 1.5;" width="165" x="413.5" y="129.5"/><ellipse cx="451" cy="145.5" fill="#ADD1B2" rx="11" ry="11" style="stroke: #A80036; stroke-width: 1.0;"/><path d="M453.9688,151.1406 Q453.3906,151.4375 452.75,151.5781 Q452.1094,151.7344 451.4063,151.7344 Q448.9063,151.7344 447.5781,150.0938 Q446.2656,148.4375 446.2656,145.3125 Q446.2656,142.1875 447.5781,140.5313 Q448.9063,138.875 451.4063,138.875 Q452.1094,138.875 452.75,139.0313 Q453.4063,139.1875 453.9688,139.4844 L453.9688,142.2031 Q453.3438,141.625 452.75,141.3594 Q452.1563,141.0781 451.5313,141.0781 Q450.1875,141.0781 449.5,142.1563 Q448.8125,143.2188 448.8125,145.3125 Q448.8125,147.4063 449.5,148.4844 Q450.1875,149.5469 451.5313,149.5469 Q452.1563,149.5469 452.75,149.2813 Q453.3438,149 453.9688,148.4219 L453.9688,151.1406 Z "/><text fill="#000000" font-family="sans-serif" font-size="12" lengthAdjust="spacingAndGlyphs" textLength="83" x="470" y="150.156">ErrorResponse</text><line style="stroke: #A80036; stroke-width: 1.5;" x1="414.5" x2="577.5" y1="161.5" y2="161.5"/><ellipse cx="424.5" cy="172.5" fill="none" rx="3" ry="3" style="stroke: #038048; stroke-width: 1.0;"/><text fill="#000000" font-family="sans-serif" font-size="11" lengthAdjust="spacingAndGlyphs" textLength="139" x="433.5" y="177.2589">Error: ErrorResponseBody</text><line style="stroke: #A80036; stroke-width: 1.5;" x1="414.5" x2="577.5" y1="184.4819" y2="184.4819"/><!--MD5=[5d815c542bfd9967fd2dd1269cefa2b4]
class platform.ErrorResponseBody--><rect fill="#FEFECE" filter="url(#f6sjiohdksd1)" height="77.9638" id="platform.ErrorResponseBody" style="stroke: #A80036; stroke-width: 1.5;" width="143" x="595.5" y="354"/><ellipse cx="610.5" cy="370" fill="#ADD1B2" rx="11" ry="11" style="stroke: #A80036; stroke-width: 1.0;"/><path d="M613.4688,375.6406 Q612.8906,375.9375 612.25,376.0781 Q611.6094,376.2344 610.9063,376.2344 Q608.4063,376.2344 607.0781,374.5938 Q605.7656,372.9375 605.7656,369.8125 Q605.7656,366.6875 607.0781,365.0313 Q608.4063,363.375 610.9063,363.375 Q611.6094,363.375 612.25,363.5313 Q612.9063,363.6875 613.4688,363.9844 L613.4688,366.7031 Q612.8438,366.125 612.25,365.8594 Q611.6563,365.5781 611.0313,365.5781 Q609.6875,365.5781 609,366.6563 Q608.3125,367.7188 608.3125,369.8125 Q608.3125,371.9063 609,372.9844 Q609.6875,374.0469 611.0313,374.0469 Q611.6563,374.0469 612.25,373.7813 Q612.8438,373.5 613.4688,372.9219 L613.4688,375.6406 Z "/><text fill="#000000" font-family="sans-serif" font-size="12" lengthAdjust="spacingAndGlyphs" textLength="111" x="624.5" y="374.656">ErrorResponseBody</text><line style="stroke: #A80036; stroke-width: 1.5;" x1="596.5" x2="737.5" y1="386" y2="386"/><ellipse cx="606.5" cy="397" fill="none" rx="3" ry="3" style="stroke: #038048; stroke-width: 1.0;"/><text fill="#000000" font-family="sans-serif" font-size="11" lengthAdjust="spacingAndGlyphs" textLength="47" x="615.5" y="401.7589">Code: int</text><ellipse cx="606.5" cy="411.9819" fill="none" rx="3" ry="3" style="stroke: #038048; stroke-width: 1.0;"/><text fill="#000000" font-family="sans-serif" font-size="11" lengthAdjust="spacingAndGlyphs" textLength="82" x="615.5" y="416.7408">Message: string</text><line style="stroke: #A80036; stroke-width: 1.5;" x1="596.5" x2="737.5" y1="423.9638" y2="423.9638"/><!--MD5=[1627f773094eccd22977139fff0e2d35]
class platform.Middleware--><rect fill="#FEFECE" filter="url(#f6sjiohdksd1)" height="62.9819" id="platform.Middleware" style="stroke: #A80036; stroke-width: 1.5;" width="221" x="37.5" y="361.5"/><ellipse cx="112.25" cy="377.5" fill="#B4A7E5" rx="11" ry="11" style="stroke: #A80036; stroke-width: 1.0;"/><path d="M108.1719,373.2656 L108.1719,371.1094 L115.5625,371.1094 L115.5625,373.2656 L113.0938,373.2656 L113.0938,381.3438 L115.5625,381.3438 L115.5625,383.5 L108.1719,383.5 L108.1719,381.3438 L110.6406,381.3438 L110.6406,373.2656 L108.1719,373.2656 Z "/><text fill="#000000" font-family="sans-serif" font-size="12" font-style="italic" lengthAdjust="spacingAndGlyphs" textLength="63" x="132.75" y="382.156">Middleware</text><line style="stroke: #A80036; stroke-width: 1.5;" x1="38.5" x2="257.5" y1="393.5" y2="393.5"/><line style="stroke: #A80036; stroke-width: 1.5;" x1="38.5" x2="257.5" y1="401.5" y2="401.5"/><rect fill="#F24D5C" height="6" style="stroke: #C82930; stroke-width: 1.0;" width="6" x="45.5" y="409.5"/><text fill="#000000" font-family="sans-serif" font-size="11" lengthAdjust="spacingAndGlyphs" textLength="195" x="57.5" y="417.2589">type: func(http.Handler) http.Handler</text><!--MD5=[7af7408ac16c8b6615c78c02e6fc903d]
class platform.Module--><rect fill="#FEFECE" filter="url(#f6sjiohdksd1)" height="107.9276" id="platform.Module" style="stroke: #A80036; stroke-width: 1.5;" width="267" x="293.5" y="339"/><ellipse cx="402.75" cy="355" fill="#B4A7E5" rx="11" ry="11" style="stroke: #A80036; stroke-width: 1.0;"/><path d="M398.6719,350.7656 L398.6719,348.6094 L406.0625,348.6094 L406.0625,350.7656 L403.5938,350.7656 L403.5938,358.8438 L406.0625,358.8438 L406.0625,361 L398.6719,361 L398.6719,358.8438 L401.1406,358.8438 L401.1406,350.7656 L398.6719,350.7656 Z "/><text fill="#000000" font-family="sans-serif" font-size="12" font-style="italic" lengthAdjust="spacingAndGlyphs" textLength="40" x="423.25" y="359.656">Module</text><line style="stroke: #A80036; stroke-width: 1.5;" x1="294.5" x2="559.5" y1="371" y2="371"/><line style="stroke: #A80036; stroke-width: 1.5;" x1="294.5" x2="559.5" y1="379" y2="379"/><ellipse cx="304.5" cy="390" fill="#84BE84" rx="3" ry="3" style="stroke: #038048; stroke-width: 1.0;"/><text fill="#000000" font-family="sans-serif" font-size="11" lengthAdjust="spacingAndGlyphs" textLength="109" x="313.5" y="394.7589">Name: Name () string</text><ellipse cx="304.5" cy="404.9819" fill="#84BE84" rx="3" ry="3" style="stroke: #038048; stroke-width: 1.0;"/><text fill="#000000" font-family="sans-serif" font-size="11" lengthAdjust="spacingAndGlyphs" textLength="179" x="313.5" y="409.7408">Start: Start (context.Context) error</text><ellipse cx="304.5" cy="419.9638" fill="#84BE84" rx="3" ry="3" style="stroke: #038048; stroke-width: 1.0;"/><text fill="#000000" font-family="sans-serif" font-size="11" lengthAdjust="spacingAndGlyphs" textLength="177" x="313.5" y="424.7227">Stop: Stop (context.Context) error</text><ellipse cx="304.5" cy="434.9457" fill="#84BE84" rx="3" ry="3" style="stroke: #038048; stroke-width: 1.0;"/><text fill="#000000" font-family="sans-serif" font-size="11" lengthAdjust="spacingAndGlyphs" textLength="241" x="313.5" y="439.7046">Mount: Mount (context.Context, Router) error</text><!--MD5=[358344282dfc8e3880b236ef018a4b77]
class platform.Options--><rect fill="#FEFECE" filter="url(#f6sjiohdksd1)" height="92.9457" id="platform.Options" style="stroke: #A80036; stroke-width: 1.5;" width="123" x="1047.5" y="114.5"/><ellipse cx="1084.1" cy="130.5" fill="#ADD1B2" rx="11" ry="11" style="stroke: #A80036; stroke-width: 1.0;"/><path d="M1087.0688,136.1406 Q1086.4906,136.4375 1085.85,136.5781 Q1085.2094,136.7344 1084.5063,136.7344 Q1082.0063,136.7344 1080.6781,135.0938 Q1079.3656,133.4375 1079.3656,130.3125 Q1079.3656,127.1875 1080.6781,125.5313 Q1082.0063,123.875 1084.5063,123.875 Q1085.2094,123.875 1085.85,124.0313 Q1086.5063,124.1875 1087.0688,124.4844 L1087.0688,127.2031 Q1086.4438,126.625 1085.85,126.3594 Q1085.2563,126.0781 1084.6313,126.0781 Q1083.2875,126.0781 1082.6,127.1563 Q1081.9125,128.2188 1081.9125,130.3125 Q1081.9125,132.4063 1082.6,133.4844 Q1083.2875,134.5469 1084.6313,134.5469 Q1085.2563,134.5469 1085.85,134.2813 Q1086.4438,134 1087.0688,133.4219 L1087.0688,136.1406 Z "/><text fill="#000000" font-family="sans-serif" font-size="12" lengthAdjust="spacingAndGlyphs" textLength="43" x="1102.9" y="135.156">Options</text><line style="stroke: #A80036; stroke-width: 1.5;" x1="1048.5" x2="1169.5" y1="146.5" y2="146.5"/><ellipse cx="1058.5" cy="157.5" fill="none" rx="3" ry="3" style="stroke: #038048; stroke-width: 1.0;"/><text fill="#000000" font-family="sans-serif" font-size="11" lengthAdjust="spacingAndGlyphs" textLength="97" x="1067.5" y="162.2589">ServerAddr: string</text><ellipse cx="1058.5" cy="172.4819" fill="none" rx="3" ry="3" style="stroke: #038048; stroke-width: 1.0;"/><text fill="#000000" font-family="sans-serif" font-size="11" lengthAdjust="spacingAndGlyphs" textLength="59" x="1067.5" y="177.2408">Quiet: bool</text><ellipse cx="1058.5" cy="187.4638" fill="none" rx="3" ry="3" style="stroke: #038048; stroke-width: 1.0;"/><text fill="#000000" font-family="sans-serif" font-size="11" lengthAdjust="spacingAndGlyphs" textLength="90" x="1067.5" y="192.2227">Modules: []string</text><line style="stroke: #A80036; stroke-width: 1.5;" x1="1048.5" x2="1169.5" y1="199.4457" y2="199.4457"/><!--MD5=[89a2371b9a67e1b5a991d2e2bed80456]
class platform.Platform--><rect fill="#FEFECE" filter="url(#f6sjiohdksd1)" height="182.837" id="platform.Platform" style="stroke: #A80036; stroke-width: 1.5;" width="165" x="1205.5" y="69.5"/><ellipse cx="1259.75" cy="85.5" fill="#B4A7E5" rx="11" ry="11" style="stroke: #A80036; stroke-width: 1.0;"/><path d="M1255.6719,81.2656 L1255.6719,79.1094 L1263.0625,79.1094 L1263.0625,81.2656 L1260.5938,81.2656 L1260.5938,89.3438 L1263.0625,89.3438 L1263.0625,91.5 L1255.6719,91.5 L1255.6719,89.3438 L1258.1406,89.3438 L1258.1406,81.2656 L1255.6719,81.2656 Z "/><text fill="#000000" font-family="sans-serif" font-size="12" font-style="italic" lengthAdjust="spacingAndGlyphs" textLength="48" x="1280.25" y="90.156">Platform</text><line style="stroke: #A80036; stroke-width: 1.5;" x1="1206.5" x2="1369.5" y1="101.5" y2="101.5"/><rect fill="none" height="6" style="stroke: #C82930; stroke-width: 1.0;" width="6" x="1213.5" y="109.5"/><text fill="#000000" font-family="sans-serif" font-size="11" lengthAdjust="spacingAndGlyphs" textLength="94" x="1225.5" y="117.2589">options: *Options</text><rect fill="none" height="6" style="stroke: #C82930; stroke-width: 1.0;" width="6" x="1213.5" y="124.4819"/><text fill="#000000" font-family="sans-serif" font-size="11" lengthAdjust="spacingAndGlyphs" textLength="87" x="1225.5" y="132.2408">router: *chi.Mux</text><rect fill="none" height="6" style="stroke: #C82930; stroke-width: 1.0;" width="6" x="1213.5" y="139.4638"/><text fill="#000000" font-family="sans-serif" font-size="11" lengthAdjust="spacingAndGlyphs" textLength="104" x="1225.5" y="147.2227">server: *http.Server</text><rect fill="none" height="6" style="stroke: #C82930; stroke-width: 1.0;" width="6" x="1213.5" y="154.4457"/><text fill="#000000" font-family="sans-serif" font-size="11" lengthAdjust="spacingAndGlyphs" textLength="107" x="1225.5" y="162.2046">listener: net.Listener</text><rect fill="none" height="6" style="stroke: #C82930; stroke-width: 1.0;" width="6" x="1213.5" y="169.4276"/><text fill="#000000" font-family="sans-serif" font-size="11" lengthAdjust="spacingAndGlyphs" textLength="128" x="1225.5" y="177.1865">context: context.Context</text><rect fill="none" height="6" style="stroke: #C82930; stroke-width: 1.0;" width="6" x="1213.5" y="184.4094"/><text fill="#000000" font-family="sans-serif" font-size="11" lengthAdjust="spacingAndGlyphs" textLength="139" x="1225.5" y="192.1684">cancel: context.CancelFunc</text><rect fill="none" height="6" style="stroke: #C82930; stroke-width: 1.0;" width="6" x="1213.5" y="199.3913"/><text fill="#000000" font-family="sans-serif" font-size="11" lengthAdjust="spacingAndGlyphs" textLength="84" x="1225.5" y="207.1502">once: sync.Once</text><rect fill="none" height="6" style="stroke: #C82930; stroke-width: 1.0;" width="6" x="1213.5" y="214.3732"/><text fill="#000000" font-family="sans-serif" font-size="11" lengthAdjust="spacingAndGlyphs" textLength="96" x="1225.5" y="222.1321">registry: *Registry</text><line style="stroke: #A80036; stroke-width: 1.5;" x1="1206.5" x2="1369.5" y1="229.3551" y2="229.3551"/><rect fill="#F24D5C" height="6" style="stroke: #C82930; stroke-width: 1.0;" width="6" x="1213.5" y="237.3551"/><text fill="#000000" font-family="sans-serif" font-size="11" lengthAdjust="spacingAndGlyphs" textLength="58" x="1225.5" y="245.114">stop: func()</text><!--MD5=[4a6a894fdff7f4e5dbd894e3f89ef842]
class platform.Registry--><rect fill="#FEFECE" filter="url(#f6sjiohdksd1)" height="197.8189" id="platform.Registry" style="stroke: #A80036; stroke-width: 1.5;" width="340" x="38" y="62"/><ellipse cx="181.25" cy="78" fill="#ADD1B2" rx="11" ry="11" style="stroke: #A80036; stroke-width: 1.0;"/><path d="M184.2188,83.6406 Q183.6406,83.9375 183,84.0781 Q182.3594,84.2344 181.6563,84.2344 Q179.1563,84.2344 177.8281,82.5938 Q176.5156,80.9375 176.5156,77.8125 Q176.5156,74.6875 177.8281,73.0313 Q179.1563,71.375 181.6563,71.375 Q182.3594,71.375 183,71.5313 Q183.6563,71.6875 184.2188,71.9844 L184.2188,74.7031 Q183.5938,74.125 183,73.8594 Q182.4063,73.5781 181.7813,73.5781 Q180.4375,73.5781 179.75,74.6563 Q179.0625,75.7188 179.0625,77.8125 Q179.0625,79.9063 179.75,80.9844 Q180.4375,82.0469 181.7813,82.0469 Q182.4063,82.0469 183,81.7813 Q183.5938,81.5 184.2188,80.9219 L184.2188,83.6406 Z "/><text fill="#000000" font-family="sans-serif" font-size="12" lengthAdjust="spacingAndGlyphs" textLength="45" x="201.75" y="82.656">Registry</text><line style="stroke: #A80036; stroke-width: 1.5;" x1="39" x2="377" y1="94" y2="94"/><rect fill="none" height="6" style="stroke: #C82930; stroke-width: 1.0;" width="6" x="46" y="102"/><text fill="#000000" font-family="sans-serif" font-size="11" lengthAdjust="spacingAndGlyphs" textLength="99" x="58" y="109.7589">mu: sync.RWMutex</text><rect fill="none" height="6" style="stroke: #C82930; stroke-width: 1.0;" width="6" x="46" y="116.9819"/><text fill="#000000" font-family="sans-serif" font-size="11" lengthAdjust="spacingAndGlyphs" textLength="99" x="58" y="124.7408">modules: []Module</text><rect fill="none" height="6" style="stroke: #C82930; stroke-width: 1.0;" width="6" x="46" y="131.9638"/><text fill="#000000" font-family="sans-serif" font-size="11" lengthAdjust="spacingAndGlyphs" textLength="138" x="58" y="139.7227">middleware: []Middleware</text><line style="stroke: #A80036; stroke-width: 1.5;" x1="39" x2="377" y1="146.9457" y2="146.9457"/><ellipse cx="49" cy="157.9457" fill="#84BE84" rx="3" ry="3" style="stroke: #038048; stroke-width: 1.0;"/><text fill="#000000" font-family="sans-serif" font-size="11" lengthAdjust="spacingAndGlyphs" textLength="91" x="58" y="162.7046">Clone () *Registry</text><ellipse cx="49" cy="172.9276" fill="#84BE84" rx="3" ry="3" style="stroke: #038048; stroke-width: 1.0;"/><text fill="#000000" font-family="sans-serif" font-size="11" lengthAdjust="spacingAndGlyphs" textLength="37" x="58" y="177.6865">Close ()</text><ellipse cx="49" cy="187.9094" fill="#84BE84" rx="3" ry="3" style="stroke: #038048; stroke-width: 1.0;"/><text fill="#000000" font-family="sans-serif" font-size="11" lengthAdjust="spacingAndGlyphs" textLength="113" x="58" y="192.6684">Find (target any) bool</text><ellipse cx="49" cy="202.8913" fill="#84BE84" rx="3" ry="3" style="stroke: #038048; stroke-width: 1.0;"/><text fill="#000000" font-family="sans-serif" font-size="11" lengthAdjust="spacingAndGlyphs" textLength="105" x="58" y="207.6502">Register (m Module)</text><ellipse cx="49" cy="217.8732" fill="#84BE84" rx="3" ry="3" style="stroke: #038048; stroke-width: 1.0;"/><text fill="#000000" font-family="sans-serif" font-size="11" lengthAdjust="spacingAndGlyphs" textLength="314" x="58" y="222.6321">Start (ctx context.Context, mux Router, opts *Options) error</text><ellipse cx="49" cy="232.8551" fill="#84BE84" rx="3" ry="3" style="stroke: #038048; stroke-width: 1.0;"/><text fill="#000000" font-family="sans-serif" font-size="11" lengthAdjust="spacingAndGlyphs" textLength="51" x="58" y="237.614">Stats () int</text><ellipse cx="49" cy="247.837" fill="#84BE84" rx="3" ry="3" style="stroke: #038048; stroke-width: 1.0;"/><text fill="#000000" font-family="sans-serif" font-size="11" lengthAdjust="spacingAndGlyphs" textLength="97" x="58" y="252.5959">Use (f Middleware)</text><!--MD5=[03302acdce61aa09c6ac2a47a3ed280c]
class platform.Router--><rect fill="#FEFECE" filter="url(#f6sjiohdksd1)" height="62.9819" id="platform.Router" style="stroke: #A80036; stroke-width: 1.5;" width="109" x="773.5" y="361.5"/><ellipse cx="806.5" cy="377.5" fill="#ADD1B2" rx="11" ry="11" style="stroke: #A80036; stroke-width: 1.0;"/><path d="M809.4688,383.1406 Q808.8906,383.4375 808.25,383.5781 Q807.6094,383.7344 806.9063,383.7344 Q804.4063,383.7344 803.0781,382.0938 Q801.7656,380.4375 801.7656,377.3125 Q801.7656,374.1875 803.0781,372.5313 Q804.4063,370.875 806.9063,370.875 Q807.6094,370.875 808.25,371.0313 Q808.9063,371.1875 809.4688,371.4844 L809.4688,374.2031 Q808.8438,373.625 808.25,373.3594 Q807.6563,373.0781 807.0313,373.0781 Q805.6875,373.0781 805,374.1563 Q804.3125,375.2188 804.3125,377.3125 Q804.3125,379.4063 805,380.4844 Q805.6875,381.5469 807.0313,381.5469 Q807.6563,381.5469 808.25,381.2813 Q808.8438,381 809.4688,380.4219 L809.4688,383.1406 Z "/><text fill="#000000" font-family="sans-serif" font-size="12" lengthAdjust="spacingAndGlyphs" textLength="37" x="824.5" y="382.156">Router</text><line style="stroke: #A80036; stroke-width: 1.5;" x1="774.5" x2="881.5" y1="393.5" y2="393.5"/><rect fill="none" height="6" style="stroke: #C82930; stroke-width: 1.0;" width="6" x="781.5" y="401.5"/><text fill="#000000" font-family="sans-serif" font-size="11" lengthAdjust="spacingAndGlyphs" textLength="83" x="793.5" y="409.2589">type: chi.Router</text><line style="stroke: #A80036; stroke-width: 1.5;" x1="774.5" x2="881.5" y1="416.4819" y2="416.4819"/><!--MD5=[add30b93225d231acb95dc49d76c1811]
class platform.UnimplementedModule--><rect fill="#FEFECE" filter="url(#f6sjiohdksd1)" height="107.9276" id="platform.UnimplementedModule" style="stroke: #A80036; stroke-width: 1.5;" width="265" x="917.5" y="339"/><ellipse cx="982.75" cy="355" fill="#B4A7E5" rx="11" ry="11" style="stroke: #A80036; stroke-width: 1.0;"/><path d="M978.6719,350.7656 L978.6719,348.6094 L986.0625,348.6094 L986.0625,350.7656 L983.5938,350.7656 L983.5938,358.8438 L986.0625,358.8438 L986.0625,361 L978.6719,361 L978.6719,358.8438 L981.1406,358.8438 L981.1406,350.7656 L978.6719,350.7656 Z "/><text fill="#000000" font-family="sans-serif" font-size="12" font-style="italic" lengthAdjust="spacingAndGlyphs" textLength="126" x="1003.25" y="359.656">UnimplementedModule</text><line style="stroke: #A80036; stroke-width: 1.5;" x1="918.5" x2="1181.5" y1="371" y2="371"/><line style="stroke: #A80036; stroke-width: 1.5;" x1="918.5" x2="1181.5" y1="379" y2="379"/><ellipse cx="928.5" cy="390" fill="#84BE84" rx="3" ry="3" style="stroke: #038048; stroke-width: 1.0;"/><text fill="#000000" font-family="sans-serif" font-size="11" lengthAdjust="spacingAndGlyphs" textLength="112" x="937.5" y="394.7589">NameFn: func() string</text><ellipse cx="928.5" cy="404.9819" fill="#84BE84" rx="3" ry="3" style="stroke: #038048; stroke-width: 1.0;"/><text fill="#000000" font-family="sans-serif" font-size="11" lengthAdjust="spacingAndGlyphs" textLength="187" x="937.5" y="409.7408">StartFn: func(context.Context) error</text><ellipse cx="928.5" cy="419.9638" fill="#84BE84" rx="3" ry="3" style="stroke: #038048; stroke-width: 1.0;"/><text fill="#000000" font-family="sans-serif" font-size="11" lengthAdjust="spacingAndGlyphs" textLength="186" x="937.5" y="424.7227">StopFn: func(context.Context) error</text><ellipse cx="928.5" cy="434.9457" fill="#84BE84" rx="3" ry="3" style="stroke: #038048; stroke-width: 1.0;"/><text fill="#000000" font-family="sans-serif" font-size="11" lengthAdjust="spacingAndGlyphs" textLength="239" x="937.5" y="439.7046">MountFn: func(context.Context, Router) error</text><!--MD5=[2ebeda91e2a6c17c7893f4f2c4d9c560]
link pkg.httpcontext.Value[T any] to pkg.httpcontext.any--><path d="M1955,192.54 C1955,237.4 1955,320.46 1955,363.89 " fill="none" id="pkg.httpcontext.Value[T any]-&gt;pkg.httpcontext.any" style="stroke: #A80036; stroke-width: 1.0;"/><polygon fill="#A80036" points="1955,368.98,1959,359.98,1955,363.98,1951,359.98,1955,368.98" style="stroke: #A80036; stroke-width: 1.0;"/><text fill="#000000" font-family="sans-serif" font-size="13" lengthAdjust="spacingAndGlyphs" textLength="25" x="1956" y="304.897">.Key</text><!--MD5=[18c80c55e6b8c6dbadea28db3d2382e9]
link platform.ErrorResponse to platform.ErrorResponseBody--><path d="M518.71,192.54 C548.69,232.87 601.64,304.09 635.48,349.61 " fill="none" id="platform.ErrorResponse-&gt;platform.ErrorResponseBody" style="stroke: #A80036; stroke-width: 1.0;"/><polygon fill="#A80036" points="638.5,353.66,636.3384,344.0513,635.516,349.648,629.9193,348.8257,638.5,353.66" style="stroke: #A80036; stroke-width: 1.0;"/><text fill="#000000" font-family="sans-serif" font-size="13" lengthAdjust="spacingAndGlyphs" textLength="33" x="603" y="304.897">.Error</text><!--MD5=[e3b860f28c5afe3bc1f819c62c72f835]
link platform.Registry to platform.Module--><path d="M301.51,260.21 C325.8,285.72 351.16,312.35 372.67,334.94 " fill="none" id="platform.Registry-&gt;platform.Module" style="stroke: #A80036; stroke-width: 1.0;"/><polygon fill="#A80036" points="376.37,338.82,373.077,329.538,372.9285,335.1929,367.2736,335.0444,376.37,338.82" style="stroke: #A80036; stroke-width: 1.0;"/><text fill="#000000" font-family="sans-serif" font-size="13" lengthAdjust="spacingAndGlyphs" textLength="55" x="345" y="304.897">.modules</text><!--MD5=[b9c6f07f2496d5ded784642acf3d07dc]
link platform.Registry to platform.Middleware--><path d="M182.38,260.21 C173.48,294.32 164.06,330.44 157.33,356.23 " fill="none" id="platform.Registry-&gt;platform.Middleware" style="stroke: #A80036; stroke-width: 1.0;"/><polygon fill="#A80036" points="156.02,361.24,162.1743,353.5507,157.2897,356.4039,154.4365,351.5193,156.02,361.24" style="stroke: #A80036; stroke-width: 1.0;"/><text fill="#000000" font-family="sans-serif" font-size="13" lengthAdjust="spacingAndGlyphs" textLength="73" x="176" y="304.897">.middleware</text><!--MD5=[4dc0a7eadcf9e4d23ec2ea4c41b2507a]
link platform.DatabaseProvider to platform.Options--><!--MD5=[bf48dbb1d6e71312169c5454a878bc25]
link platform.Options to platform.Platform--><!--MD5=[da69b8f63118d314bb6c53ec95cafa94]
link platform.DatabaseProvider to platform.Router--><!--MD5=[b69fa2d9437b1ccdf5c68382e95472b5]
link platform.Router to platform.UnimplementedModule--><!--MD5=[7f4b5721cbc8ac46c59441d9465310de]
@startuml

class "internal.DatabaseOption" {
  + MaxOpenConns: int
  + MaxIdleConns: int
  + Apply (client *sqlx.DB)
}

interface "internal.DatabaseProvider" {
  - open: func(string, string) (*sqlx.DB, error)
  - mu: sync.Mutex
  - cache: map[string]*sqlx.DB
  - credentials: map[string]string
}

class "pkg.httpcontext.Value[T any]" {
  + Key: any
}

class "pkg.telemetry.Monitor" {
  - mu: sync.Mutex
  - enabled: bool
  - state: map[string]*expvar.Int
  + Enabled () bool
  + SetEnabled (enabled bool)
  + Touch (name string)
}

interface "platform.DatabaseProvider" {
  + Open: Open (ctx context.Context, names ...string) (*sqlx.DB, error)
  + Connect: Connect (ctx context.Context, names ...string) (*sqlx.DB, error)
}

class "platform.ErrorResponse" {
  + Error: ErrorResponseBody
}

class "platform.ErrorResponseBody" {
  + Code: int
  + Message: string
}

interface "platform.Middleware" {
  - type: func(http.Handler) http.Handler
}

interface "platform.Module" {
  + Name: Name () string
  + Start: Start (context.Context) error
  + Stop: Stop (context.Context) error
  + Mount: Mount (context.Context, Router) error
}

class "platform.Options" {
  + ServerAddr: string
  + Quiet: bool
  + Modules: []string
}

interface "platform.Platform" {
  - options: *Options
  - router: *chi.Mux
  - server: *http.Server
  - listener: net.Listener
  - context: context.Context
  - cancel: context.CancelFunc
  - stop: func()
  - once: sync.Once
  - registry: *Registry
}

class "platform.Registry" {
  - mu: sync.RWMutex
  - modules: []Module
  - middleware: []Middleware
  + Clone () *Registry
  + Close ()
  + Find (target any) bool
  + Register (m Module)
  + Start (ctx context.Context, mux Router, opts *Options) error
  + Stats () int
  + Use (f Middleware)
}

class "platform.Router" {
  - type: chi.Router
}

interface "platform.UnimplementedModule" {
  + NameFn: func() string
  + StartFn: func(context.Context) error
  + StopFn: func(context.Context) error
  + MountFn: func(context.Context, Router) error
}



"pkg.httpcontext.Value[T any]" - -> "pkg.httpcontext.any" : .Key



"platform.ErrorResponse" - -> "platform.ErrorResponseBody" : .Error






"platform.Registry" - -> "platform.Module" : .modules
"platform.Registry" - -> "platform.Middleware" : .middleware




@enduml

PlantUML version 1.2020.02(Sun Mar 01 11:22:07 CET 2020)
(GPL source distribution)
Java Runtime: OpenJDK Runtime Environment
JVM: OpenJDK 64-Bit Server VM
Java Version: 21.0.9+10-Ubuntu-125.10
Operating System: Linux
Default Encoding: UTF-8
Language: en
Country: US
--></g></svg>